%TF.GenerationSoftware,KiCad,Pcbnew,9.0.8*%
%TF.CreationDate,2026-03-28T13:13:30+01:00*%
%TF.ProjectId,finished_right,66696e69-7368-4656-945f-72696768742e,v1.0.0*%
%TF.SameCoordinates,Original*%
%TF.FileFunction,Profile,NP*%
%FSLAX46Y46*%
G04 Gerber Fmt 4.6, Leading zero omitted, Abs format (unit mm)*
G04 Created by KiCad (PCBNEW 9.0.8) date 2026-03-28 13:13:30*
%MOMM*%
%LPD*%
G01*
G04 APERTURE LIST*
%TA.AperFunction,Profile*%
%ADD10C,0.150000*%
%TD*%
G04 APERTURE END LIST*
D10*
X242750000Y-67500000D02*
X242750000Y-155500000D01*
X242750000Y-67500000D02*
G75*
G02*
X244750000Y-65500000I2000000J0D01*
G01*
X244750000Y-157500000D02*
G75*
G02*
X242750000Y-155500000I0J2000000D01*
G01*
X244750000Y-157500000D02*
X261870197Y-157500000D01*
X260749900Y-65500000D02*
X244750000Y-65500000D01*
X261121233Y-64014868D02*
X260749900Y-65500000D01*
X261121232Y-64014868D02*
G75*
G02*
X263061502Y-62500002I1940268J-485132D01*
G01*
X263344505Y-156851449D02*
G75*
G02*
X261870197Y-157499997I-1474305J1351449D01*
G01*
X263344505Y-156851449D02*
X264905495Y-155148551D01*
X264905495Y-155148551D02*
G75*
G02*
X266379803Y-154500003I1474305J-1351449D01*
G01*
X266379803Y-154500000D02*
X281734436Y-154500000D01*
X277734436Y-62500000D02*
X263061502Y-62500000D01*
X279718992Y-60748069D02*
G75*
G02*
X277734436Y-62500036I-1984592J248069D01*
G01*
X280031009Y-58251931D02*
X279718991Y-60748069D01*
X280031008Y-58251931D02*
G75*
G02*
X282015564Y-56499964I1984592J-248069D01*
G01*
X283718992Y-152748069D02*
G75*
G02*
X281734436Y-154500036I-1984592J248069D01*
G01*
X283718991Y-152748069D02*
X284031009Y-150251931D01*
X284031008Y-150251931D02*
G75*
G02*
X286015564Y-148499964I1984592J-248069D01*
G01*
X286015564Y-148500000D02*
X296527625Y-148500000D01*
X296527625Y-148500000D02*
G75*
G02*
X298505473Y-150203323I-25J-2000000D01*
G01*
X298505498Y-150203319D02*
X298744502Y-151796681D01*
X300527625Y-56500000D02*
X282015564Y-56500000D01*
X300527625Y-56500000D02*
G75*
G02*
X302505473Y-58203323I-25J-2000000D01*
G01*
X300722375Y-153500000D02*
G75*
G02*
X298744527Y-151796677I25J2000000D01*
G01*
X300722375Y-153500000D02*
X315202839Y-153500000D01*
X302744502Y-59796681D02*
X302505498Y-58203319D01*
X304722375Y-61500000D02*
G75*
G02*
X302744527Y-59796677I25J2000000D01*
G01*
X315202839Y-153500000D02*
G75*
G02*
X317191419Y-155286938I-39J-2000000D01*
G01*
X317191457Y-155286934D02*
X317558543Y-158713066D01*
X319202839Y-61500000D02*
X304722375Y-61500000D01*
X319202839Y-61500000D02*
G75*
G02*
X321191419Y-63286938I-39J-2000000D01*
G01*
X319547161Y-160500000D02*
G75*
G02*
X317558581Y-158713062I39J2000000D01*
G01*
X319547161Y-160500000D02*
X356500000Y-160500000D01*
X321558543Y-66713066D02*
X321191457Y-63286934D01*
X323547161Y-68500000D02*
G75*
G02*
X321558581Y-66713062I39J2000000D01*
G01*
X356500000Y-68500000D02*
X323547161Y-68500000D01*
X356500000Y-68500000D02*
G75*
G02*
X358500000Y-70500000I0J-2000000D01*
G01*
X358500000Y-158500000D02*
G75*
G02*
X356500000Y-160500000I-2000000J0D01*
G01*
X358500000Y-158500000D02*
X358500000Y-70500000D01*
M02*
