M48
; DRILL file {KiCad 9.0.8} date 2026-03-28T13:14:45+0100
; FORMAT={-:-/ absolute / metric / decimal}
; #@! TF.CreationDate,2026-03-28T13:14:45+01:00
; #@! TF.GenerationSoftware,Kicad,Pcbnew,9.0.8
; #@! TF.FileFunction,NonPlated,1,2,NPTH
FMAT,2
METRIC
; #@! TA.AperFunction,NonPlated,NPTH,ComponentDrill
T1C0.750
; #@! TA.AperFunction,NonPlated,NPTH,ComponentDrill
T2C0.900
; #@! TA.AperFunction,NonPlated,NPTH,ComponentDrill
T3C1.702
; #@! TA.AperFunction,NonPlated,NPTH,ComponentDrill
T4C3.000
; #@! TA.AperFunction,NonPlated,NPTH,ComponentDrill
T5C3.429
; #@! TA.AperFunction,NonPlated,NPTH,ComponentDrill
T6C4.000
%
G90
G05
T1
X201.375Y-90.95
X204.125Y-90.95
T2
X202.55Y-98.25
X202.55Y-101.25
T3
X94.5Y-79.0
X94.5Y-96.75
X94.5Y-114.5
X94.5Y-132.25
X94.5Y-150.0
X105.5Y-79.0
X105.5Y-96.75
X105.5Y-114.5
X105.5Y-132.25
X105.5Y-150.0
X113.25Y-79.0
X113.25Y-96.75
X113.25Y-114.5
X113.25Y-132.25
X113.25Y-150.0
X124.25Y-79.0
X124.25Y-96.75
X124.25Y-114.5
X124.25Y-132.25
X124.25Y-150.0
X132.0Y-72.0
X132.0Y-89.75
X132.0Y-107.5
X132.0Y-125.25
X132.0Y-143.0
X143.0Y-72.0
X143.0Y-89.75
X143.0Y-107.5
X143.0Y-125.25
X143.0Y-143.0
X150.75Y-67.0
X150.75Y-84.75
X150.75Y-102.5
X150.75Y-120.25
X150.75Y-138.0
X161.75Y-67.0
X161.75Y-84.75
X161.75Y-102.5
X161.75Y-120.25
X161.75Y-138.0
X169.5Y-73.0
X169.5Y-90.75
X169.5Y-108.5
X169.5Y-126.25
X169.5Y-144.0
X180.5Y-73.0
X180.5Y-90.75
X180.5Y-108.5
X180.5Y-126.25
X180.5Y-144.0
X188.25Y-76.0
X188.25Y-93.75
X188.25Y-111.5
X188.25Y-129.25
X188.25Y-147.0
X199.25Y-76.0
X199.25Y-93.75
X199.25Y-111.5
X199.25Y-129.25
X199.25Y-147.0
T4
X95.0Y-82.75
X95.0Y-100.5
X95.0Y-118.25
X95.0Y-136.0
X95.0Y-153.75
X100.0Y-84.95
X100.0Y-102.7
X100.0Y-120.45
X100.0Y-138.2
X100.0Y-155.95
X113.75Y-82.75
X113.75Y-100.5
X113.75Y-118.25
X113.75Y-136.0
X113.75Y-153.75
X118.75Y-84.95
X118.75Y-102.7
X118.75Y-120.45
X118.75Y-138.2
X118.75Y-155.95
X132.5Y-75.75
X132.5Y-93.5
X132.5Y-111.25
X132.5Y-129.0
X132.5Y-146.75
X137.5Y-77.95
X137.5Y-95.7
X137.5Y-113.45
X137.5Y-131.2
X137.5Y-148.95
X151.25Y-70.75
X151.25Y-88.5
X151.25Y-106.25
X151.25Y-124.0
X151.25Y-141.75
X156.25Y-72.95
X156.25Y-90.7
X156.25Y-108.45
X156.25Y-126.2
X156.25Y-143.95
X170.0Y-76.75
X170.0Y-94.5
X170.0Y-112.25
X170.0Y-130.0
X170.0Y-147.75
X175.0Y-78.95
X175.0Y-96.7
X175.0Y-114.45
X175.0Y-132.2
X175.0Y-149.95
X188.75Y-79.75
X188.75Y-97.5
X188.75Y-115.25
X188.75Y-133.0
X188.75Y-150.75
X193.75Y-81.95
X193.75Y-99.7
X193.75Y-117.45
X193.75Y-135.2
X193.75Y-152.95
T5
X100.0Y-79.0
X100.0Y-96.75
X100.0Y-114.5
X100.0Y-132.25
X100.0Y-150.0
X118.75Y-79.0
X118.75Y-96.75
X118.75Y-114.5
X118.75Y-132.25
X118.75Y-150.0
X137.5Y-72.0
X137.5Y-89.75
X137.5Y-107.5
X137.5Y-125.25
X137.5Y-143.0
X156.25Y-67.0
X156.25Y-84.75
X156.25Y-102.5
X156.25Y-120.25
X156.25Y-138.0
X175.0Y-73.0
X175.0Y-90.75
X175.0Y-108.5
X175.0Y-126.25
X175.0Y-144.0
X193.75Y-76.0
X193.75Y-93.75
X193.75Y-111.5
X193.75Y-129.25
X193.75Y-147.0
T6
X109.0Y-140.75
X109.75Y-87.5
X147.25Y-111.75
X166.0Y-82.25
X166.0Y-135.5
M30
