M48
; DRILL file {KiCad 9.0.8} date 2026-03-28T13:13:15+0100
; FORMAT={-:-/ absolute / metric / decimal}
; #@! TF.CreationDate,2026-03-28T13:13:15+01:00
; #@! TF.GenerationSoftware,Kicad,Pcbnew,9.0.8
; #@! TF.FileFunction,Plated,1,2,PTH
FMAT,2
METRIC
; #@! TA.AperFunction,Plated,PTH,ViaDrill
T1C0.400
; #@! TA.AperFunction,Plated,PTH,ComponentDrill
T2C0.750
; #@! TA.AperFunction,Plated,PTH,ComponentDrill
T3C0.991
; #@! TA.AperFunction,Plated,PTH,ComponentDrill
T4C1.092
%
G90
G05
T1
X247.595Y-88.325
X249.5Y-106.5
X251.0Y-100.0
X267.0Y-66.0
X267.0Y-80.0
X269.5Y-66.0
X270.5Y-76.5
X279.0Y-102.0
X281.0Y-77.5
X287.523Y-83.977
X288.5Y-86.0
X290.0Y-88.5
X292.5Y-80.5
X294.5Y-123.5
X294.5Y-123.5
X294.5Y-141.5
X294.525Y-119.975
X294.525Y-137.975
T2
X295.25Y-95.5
X295.25Y-97.5
T3
X261.55Y-73.19
X261.55Y-80.81
X261.55Y-93.44
X261.55Y-101.06
X261.55Y-111.19
X261.55Y-118.81
X261.55Y-128.94
X261.55Y-136.56
X261.55Y-146.69
X261.55Y-154.31
X280.3Y-67.19
X280.3Y-74.81
X280.3Y-90.44
X280.3Y-98.06
X280.3Y-108.19
X280.3Y-115.81
X280.3Y-120.44
X280.3Y-128.06
X280.3Y-143.69
X280.3Y-151.31
X299.05Y-66.69
X299.05Y-74.31
X299.05Y-84.44
X299.05Y-92.06
X299.05Y-96.69
X299.05Y-104.31
X299.05Y-119.94
X299.05Y-127.56
X299.05Y-137.69
X299.05Y-145.31
X317.8Y-71.69
X317.8Y-79.31
X317.8Y-89.44
X317.8Y-97.06
X317.8Y-107.19
X317.8Y-114.81
X317.8Y-124.94
X317.8Y-132.56
X317.8Y-142.69
X317.8Y-150.31
X336.55Y-73.19
X336.55Y-80.81
X336.55Y-96.44
X336.55Y-104.06
X336.55Y-114.19
X336.55Y-121.81
X336.55Y-126.44
X336.55Y-134.06
X336.55Y-149.69
X336.55Y-157.31
X355.3Y-78.69
X355.3Y-86.31
X355.3Y-96.44
X355.3Y-104.06
X355.3Y-114.19
X355.3Y-121.81
X355.3Y-131.94
X355.3Y-139.56
X355.3Y-149.69
X355.3Y-157.31
T4
X248.78Y-69.88
X248.78Y-85.12
X251.32Y-69.88
X251.32Y-85.12
X253.86Y-69.88
X253.86Y-85.12
X256.4Y-69.88
X256.4Y-85.12
X258.94Y-69.88
X258.94Y-85.12
X261.48Y-69.88
X261.48Y-85.12
X264.02Y-69.88
X264.02Y-85.12
X266.56Y-69.88
X266.56Y-85.12
X269.1Y-69.88
X269.1Y-85.12
X271.64Y-69.88
X271.64Y-85.12
X274.18Y-69.88
X274.18Y-85.12
X276.72Y-69.88
X276.72Y-85.12
M30
