%TF.GenerationSoftware,KiCad,Pcbnew,9.0.8*%
%TF.CreationDate,2026-03-28T13:14:48+01:00*%
%TF.ProjectId,finished_left,66696e69-7368-4656-945f-6c6566742e6b,v1.0.0*%
%TF.SameCoordinates,Original*%
%TF.FileFunction,Copper,L1,Top*%
%TF.FilePolarity,Positive*%
%FSLAX46Y46*%
G04 Gerber Fmt 4.6, Leading zero omitted, Abs format (unit mm)*
G04 Created by KiCad (PCBNEW 9.0.8) date 2026-03-28 13:14:48*
%MOMM*%
%LPD*%
G01*
G04 APERTURE LIST*
%TA.AperFunction,WasherPad*%
%ADD10C,1.000000*%
%TD*%
%TA.AperFunction,ComponentPad*%
%ADD11R,1.778000X1.778000*%
%TD*%
%TA.AperFunction,SMDPad,CuDef*%
%ADD12R,1.200000X0.900000*%
%TD*%
%TA.AperFunction,ComponentPad*%
%ADD13C,1.905000*%
%TD*%
%TA.AperFunction,ComponentPad*%
%ADD14R,1.700000X1.200000*%
%TD*%
%TA.AperFunction,ComponentPad*%
%ADD15O,1.700000X1.200000*%
%TD*%
%TA.AperFunction,ComponentPad*%
%ADD16C,1.752600*%
%TD*%
%TA.AperFunction,ViaPad*%
%ADD17C,0.800000*%
%TD*%
%TA.AperFunction,Conductor*%
%ADD18C,0.250000*%
%TD*%
G04 APERTURE END LIST*
D10*
%TO.P,T1,*%
%TO.N,*%
X202550000Y-98250000D03*
X202550000Y-101250000D03*
%TD*%
D11*
%TO.P,D16,1*%
%TO.N,P113*%
X182800000Y-151310000D03*
D12*
X182800000Y-149150000D03*
%TO.P,D16,2*%
%TO.N,fifth_mod*%
X182800000Y-145850000D03*
D13*
X182800000Y-143690000D03*
%TD*%
D11*
%TO.P,D5,1*%
%TO.N,P115*%
X126550000Y-139560000D03*
D12*
X126550000Y-137400000D03*
%TO.P,D5,2*%
%TO.N,second_bottom*%
X126550000Y-134100000D03*
D13*
X126550000Y-131940000D03*
%TD*%
D11*
%TO.P,D6,1*%
%TO.N,P002*%
X126550000Y-121810000D03*
D12*
X126550000Y-119650000D03*
%TO.P,D6,2*%
%TO.N,second_home*%
X126550000Y-116350000D03*
D13*
X126550000Y-114190000D03*
%TD*%
D11*
%TO.P,D30,1*%
%TO.N,P029*%
X164050000Y-93060000D03*
D12*
X164050000Y-90900000D03*
%TO.P,D30,2*%
%TO.N,fourth_top*%
X164050000Y-87600000D03*
D13*
X164050000Y-85440000D03*
%TD*%
D11*
%TO.P,D9,1*%
%TO.N,P113*%
X145300000Y-150310000D03*
D12*
X145300000Y-148150000D03*
%TO.P,D9,2*%
%TO.N,third_mod*%
X145300000Y-144850000D03*
D13*
X145300000Y-142690000D03*
%TD*%
D11*
%TO.P,D11,1*%
%TO.N,P029*%
X145300000Y-97060000D03*
D12*
X145300000Y-94900000D03*
%TO.P,D11,2*%
%TO.N,third_top*%
X145300000Y-91600000D03*
D13*
X145300000Y-89440000D03*
%TD*%
D11*
%TO.P,D28,1*%
%TO.N,P002*%
X145300000Y-107810000D03*
D12*
X145300000Y-105650000D03*
%TO.P,D28,2*%
%TO.N,third_home*%
X145300000Y-102350000D03*
D13*
X145300000Y-100190000D03*
%TD*%
D11*
%TO.P,D1,1*%
%TO.N,P113*%
X107800000Y-157310000D03*
D12*
X107800000Y-155150000D03*
%TO.P,D1,2*%
%TO.N,first_mod*%
X107800000Y-151850000D03*
D13*
X107800000Y-149690000D03*
%TD*%
D11*
%TO.P,D3,1*%
%TO.N,P029*%
X107800000Y-104060000D03*
D12*
X107800000Y-101900000D03*
%TO.P,D3,2*%
%TO.N,first_top*%
X107800000Y-98600000D03*
D13*
X107800000Y-96440000D03*
%TD*%
D11*
%TO.P,D27,1*%
%TO.N,P031*%
X107800000Y-79310000D03*
D12*
X107800000Y-77150000D03*
%TO.P,D27,2*%
%TO.N,first_num*%
X107800000Y-73850000D03*
D13*
X107800000Y-71690000D03*
%TD*%
D11*
%TO.P,D29,1*%
%TO.N,P113*%
X164050000Y-146310000D03*
D12*
X164050000Y-144150000D03*
%TO.P,D29,2*%
%TO.N,fourth_mod*%
X164050000Y-140850000D03*
D13*
X164050000Y-138690000D03*
%TD*%
D11*
%TO.P,D20,1*%
%TO.N,P031*%
X182800000Y-80310000D03*
D12*
X182800000Y-78150000D03*
%TO.P,D20,2*%
%TO.N,fifth_num*%
X182800000Y-74850000D03*
D13*
X182800000Y-72690000D03*
%TD*%
D11*
%TO.P,D18,1*%
%TO.N,P002*%
X182800000Y-115810000D03*
D12*
X182800000Y-113650000D03*
%TO.P,D18,2*%
%TO.N,fifth_home*%
X182800000Y-110350000D03*
D13*
X182800000Y-108190000D03*
%TD*%
D11*
%TO.P,D8,1*%
%TO.N,P031*%
X126550000Y-86310000D03*
D12*
X126550000Y-84150000D03*
%TO.P,D8,2*%
%TO.N,second_num*%
X126550000Y-80850000D03*
D13*
X126550000Y-78690000D03*
%TD*%
D11*
%TO.P,D7,1*%
%TO.N,P029*%
X126550000Y-104060000D03*
D12*
X126550000Y-101900000D03*
%TO.P,D7,2*%
%TO.N,second_top*%
X126550000Y-98600000D03*
D13*
X126550000Y-96440000D03*
%TD*%
D11*
%TO.P,D23,1*%
%TO.N,P031*%
X201550000Y-83310000D03*
D12*
X201550000Y-81150000D03*
%TO.P,D23,2*%
%TO.N,sixth_num*%
X201550000Y-77850000D03*
D13*
X201550000Y-75690000D03*
%TD*%
D14*
%TO.P,JST1,1*%
%TO.N,pos*%
X149250000Y-98000000D03*
D15*
%TO.P,JST1,2*%
%TO.N,GND*%
X149250000Y-96000000D03*
%TD*%
D11*
%TO.P,D26,1*%
%TO.N,P115*%
X107800000Y-132560000D03*
D12*
X107800000Y-130400000D03*
%TO.P,D26,2*%
%TO.N,first_bottom*%
X107800000Y-127100000D03*
D13*
X107800000Y-124940000D03*
%TD*%
D11*
%TO.P,D17,1*%
%TO.N,P115*%
X182800000Y-133560000D03*
D12*
X182800000Y-131400000D03*
%TO.P,D17,2*%
%TO.N,fifth_bottom*%
X182800000Y-128100000D03*
D13*
X182800000Y-125940000D03*
%TD*%
D11*
%TO.P,D24,1*%
%TO.N,P029*%
X201550000Y-113560000D03*
D12*
X201550000Y-111400000D03*
%TO.P,D24,2*%
%TO.N,sixth_top*%
X201550000Y-108100000D03*
D13*
X201550000Y-105940000D03*
%TD*%
D11*
%TO.P,D19,1*%
%TO.N,P029*%
X182800000Y-98060000D03*
D12*
X182800000Y-95900000D03*
%TO.P,D19,2*%
%TO.N,fifth_top*%
X182800000Y-92600000D03*
D13*
X182800000Y-90440000D03*
%TD*%
D11*
%TO.P,D21,1*%
%TO.N,P113*%
X201550000Y-154310000D03*
D12*
X201550000Y-152150000D03*
%TO.P,D21,2*%
%TO.N,sixth_mod*%
X201550000Y-148850000D03*
D13*
X201550000Y-146690000D03*
%TD*%
D11*
%TO.P,D4,1*%
%TO.N,P113*%
X126550000Y-157310000D03*
D12*
X126550000Y-155150000D03*
%TO.P,D4,2*%
%TO.N,second_mod*%
X126550000Y-151850000D03*
D13*
X126550000Y-149690000D03*
%TD*%
D11*
%TO.P,D10,1*%
%TO.N,P115*%
X145300000Y-132560000D03*
D12*
X145300000Y-130400000D03*
%TO.P,D10,2*%
%TO.N,third_bottom*%
X145300000Y-127100000D03*
D13*
X145300000Y-124940000D03*
%TD*%
D11*
%TO.P,D2,1*%
%TO.N,P002*%
X107800000Y-121810000D03*
D12*
X107800000Y-119650000D03*
%TO.P,D2,2*%
%TO.N,first_home*%
X107800000Y-116350000D03*
D13*
X107800000Y-114190000D03*
%TD*%
D11*
%TO.P,D15,1*%
%TO.N,P031*%
X164050000Y-74310000D03*
D12*
X164050000Y-72150000D03*
%TO.P,D15,2*%
%TO.N,fourth_num*%
X164050000Y-68850000D03*
D13*
X164050000Y-66690000D03*
%TD*%
D11*
%TO.P,D22,1*%
%TO.N,P115*%
X201550000Y-136560000D03*
D12*
X201550000Y-134400000D03*
%TO.P,D22,2*%
%TO.N,sixth_bottom*%
X201550000Y-131100000D03*
D13*
X201550000Y-128940000D03*
%TD*%
D16*
%TO.P,MCU1,1*%
%TO.N,P006*%
X198720000Y-69880000D03*
%TO.P,MCU1,2*%
%TO.N,P008*%
X196180000Y-69880000D03*
%TO.P,MCU1,3*%
%TO.N,GND*%
X193640000Y-69880000D03*
%TO.P,MCU1,4*%
X191100000Y-69880000D03*
%TO.P,MCU1,5*%
%TO.N,P017*%
X188560000Y-69880000D03*
%TO.P,MCU1,6*%
%TO.N,P020*%
X186020000Y-69880000D03*
%TO.P,MCU1,7*%
%TO.N,P022*%
X183480000Y-69880000D03*
%TO.P,MCU1,8*%
%TO.N,P024*%
X180940000Y-69880000D03*
%TO.P,MCU1,9*%
%TO.N,P100*%
X178400000Y-69880000D03*
%TO.P,MCU1,10*%
%TO.N,P011*%
X175860000Y-69880000D03*
%TO.P,MCU1,11*%
%TO.N,P104*%
X173320000Y-69880000D03*
%TO.P,MCU1,12*%
%TO.N,P106*%
X170780000Y-69880000D03*
%TO.P,MCU1,13*%
%TO.N,P009*%
X170780000Y-85120000D03*
%TO.P,MCU1,14*%
%TO.N,P010*%
X173320000Y-85120000D03*
%TO.P,MCU1,15*%
%TO.N,P111*%
X175860000Y-85120000D03*
%TO.P,MCU1,16*%
%TO.N,P113*%
X178400000Y-85120000D03*
%TO.P,MCU1,17*%
%TO.N,P115*%
X180940000Y-85120000D03*
%TO.P,MCU1,18*%
%TO.N,P002*%
X183480000Y-85120000D03*
%TO.P,MCU1,19*%
%TO.N,P029*%
X186020000Y-85120000D03*
%TO.P,MCU1,20*%
%TO.N,P031*%
X188560000Y-85120000D03*
%TO.P,MCU1,21*%
%TO.N,VCC*%
X191100000Y-85120000D03*
%TO.P,MCU1,22*%
%TO.N,RST*%
X193640000Y-85120000D03*
%TO.P,MCU1,23*%
%TO.N,GND*%
X196180000Y-85120000D03*
%TO.P,MCU1,24*%
%TO.N,RAW*%
X198720000Y-85120000D03*
%TD*%
D11*
%TO.P,D13,1*%
%TO.N,P115*%
X164050000Y-127560000D03*
D12*
X164050000Y-125400000D03*
%TO.P,D13,2*%
%TO.N,fourth_bottom*%
X164050000Y-122100000D03*
D13*
X164050000Y-119940000D03*
%TD*%
D11*
%TO.P,D14,1*%
%TO.N,P002*%
X164050000Y-109810000D03*
D12*
X164050000Y-107650000D03*
%TO.P,D14,2*%
%TO.N,fourth_home*%
X164050000Y-104350000D03*
D13*
X164050000Y-102190000D03*
%TD*%
D11*
%TO.P,D25,1*%
%TO.N,P002*%
X201550000Y-124810000D03*
D12*
X201550000Y-122650000D03*
%TO.P,D25,2*%
%TO.N,sixth_home*%
X201550000Y-119350000D03*
D13*
X201550000Y-117190000D03*
%TD*%
D11*
%TO.P,D12,1*%
%TO.N,P031*%
X145300000Y-79310000D03*
D12*
X145300000Y-77150000D03*
%TO.P,D12,2*%
%TO.N,third_num*%
X145300000Y-73850000D03*
D13*
X145300000Y-71690000D03*
%TD*%
D17*
%TO.N,P100*%
X159525000Y-88000000D03*
X159525000Y-94000000D03*
X159500000Y-103000000D03*
X159500000Y-138500000D03*
X159500000Y-115500000D03*
X159525000Y-75500000D03*
X159500000Y-120500000D03*
X159500000Y-133500000D03*
%TO.N,P011*%
X178500000Y-145000000D03*
X178500000Y-92000000D03*
X178275000Y-99300000D03*
X178500000Y-122000000D03*
X178500000Y-140000000D03*
X178500000Y-82000000D03*
X178500000Y-127000000D03*
X178500000Y-109000000D03*
X178000000Y-76500000D03*
%TO.N,P017*%
X197000000Y-79500000D03*
X197000000Y-77000000D03*
%TO.N,P113*%
X187946300Y-87500000D03*
%TO.N,P002*%
X180000000Y-99300000D03*
%TO.N,GND*%
X198500000Y-87000000D03*
%TO.N,RST*%
X198500000Y-88500000D03*
%TO.N,pos*%
X199000000Y-96500000D03*
X195500000Y-96500000D03*
%TD*%
D18*
%TO.N,first_mod*%
X107800000Y-149690000D02*
X107800000Y-151850000D01*
%TO.N,first_bottom*%
X107800000Y-124940000D02*
X107800000Y-127100000D01*
%TO.N,first_home*%
X107800000Y-114190000D02*
X107800000Y-116350000D01*
%TO.N,first_top*%
X107800000Y-96440000D02*
X107800000Y-98600000D01*
%TO.N,first_num*%
X107800000Y-71690000D02*
X107800000Y-73850000D01*
%TO.N,second_mod*%
X126550000Y-149690000D02*
X126550000Y-151850000D01*
%TO.N,second_bottom*%
X126550000Y-131940000D02*
X126550000Y-134100000D01*
%TO.N,second_home*%
X126550000Y-114190000D02*
X126550000Y-116350000D01*
%TO.N,second_top*%
X126550000Y-96440000D02*
X126550000Y-98600000D01*
%TO.N,second_num*%
X126550000Y-78690000D02*
X126550000Y-80850000D01*
%TO.N,third_mod*%
X145300000Y-144850000D02*
X145300000Y-142690000D01*
%TO.N,third_bottom*%
X145300000Y-124940000D02*
X145300000Y-127100000D01*
%TO.N,third_home*%
X145300000Y-100190000D02*
X145300000Y-102350000D01*
%TO.N,third_top*%
X145300000Y-89440000D02*
X145300000Y-91600000D01*
%TO.N,third_num*%
X145300000Y-71690000D02*
X145300000Y-73850000D01*
%TO.N,P100*%
X159500000Y-138500000D02*
X159500000Y-133500000D01*
X159500000Y-103000000D02*
X159500000Y-94025000D01*
X159500000Y-94025000D02*
X159525000Y-94000000D01*
X159500000Y-120500000D02*
X159500000Y-115500000D01*
X159500000Y-87975000D02*
X159525000Y-88000000D01*
X159525000Y-75500000D02*
X159500000Y-75525000D01*
X159500000Y-75525000D02*
X159500000Y-87975000D01*
%TO.N,fourth_mod*%
X164050000Y-138690000D02*
X164050000Y-140850000D01*
%TO.N,fourth_bottom*%
X164050000Y-119940000D02*
X164050000Y-122100000D01*
%TO.N,fourth_home*%
X164050000Y-102190000D02*
X164050000Y-104350000D01*
%TO.N,fourth_top*%
X164050000Y-85440000D02*
X164050000Y-87600000D01*
%TO.N,fourth_num*%
X164050000Y-66690000D02*
X164050000Y-68850000D01*
%TO.N,P011*%
X178500000Y-83918700D02*
X178897595Y-83918700D01*
X178500000Y-140000000D02*
X178500000Y-145000000D01*
X179601300Y-84622405D02*
X179601300Y-85617595D01*
X178000000Y-76500000D02*
X178000000Y-72020000D01*
X178500000Y-99525000D02*
X178500000Y-109000000D01*
X178000000Y-72020000D02*
X175860000Y-69880000D01*
X178500000Y-122000000D02*
X178500000Y-127000000D01*
X178897595Y-83918700D02*
X179601300Y-84622405D01*
X178500000Y-86321300D02*
X178500000Y-92000000D01*
X178897595Y-86321300D02*
X178500000Y-86321300D01*
X178500000Y-82000000D02*
X178500000Y-83918700D01*
X179601300Y-85617595D02*
X178897595Y-86321300D01*
X178275000Y-99300000D02*
X178500000Y-99525000D01*
%TO.N,fifth_mod*%
X182800000Y-143690000D02*
X182800000Y-145850000D01*
%TO.N,fifth_bottom*%
X182800000Y-125940000D02*
X182800000Y-128100000D01*
%TO.N,fifth_home*%
X182800000Y-108190000D02*
X182800000Y-110350000D01*
%TO.N,fifth_top*%
X182800000Y-90440000D02*
X182800000Y-92600000D01*
%TO.N,fifth_num*%
X182800000Y-74850000D02*
X182800000Y-72690000D01*
%TO.N,P017*%
X197000000Y-77000000D02*
X197000000Y-79500000D01*
%TO.N,sixth_mod*%
X201550000Y-146690000D02*
X201550000Y-148850000D01*
%TO.N,sixth_bottom*%
X201550000Y-128940000D02*
X201550000Y-131100000D01*
%TO.N,sixth_home*%
X201550000Y-117190000D02*
X201550000Y-119350000D01*
%TO.N,sixth_top*%
X201550000Y-105940000D02*
X201550000Y-108100000D01*
%TO.N,sixth_num*%
X201550000Y-77850000D02*
X201550000Y-75690000D01*
%TO.N,P113*%
X149300000Y-146310000D02*
X145300000Y-150310000D01*
X187671300Y-88328700D02*
X187671300Y-91034904D01*
X182800000Y-151310000D02*
X182285000Y-151825000D01*
X164050000Y-144150000D02*
X164050000Y-146310000D01*
X201550000Y-154310000D02*
X201035000Y-154825000D01*
X145300000Y-150310000D02*
X142317824Y-153292176D01*
X108315000Y-157825000D02*
X107800000Y-157310000D01*
X203277500Y-152582500D02*
X201550000Y-154310000D01*
X142317824Y-153292176D02*
X130567824Y-153292176D01*
X194011396Y-97375000D02*
X194713046Y-97375000D01*
X107800000Y-157310000D02*
X107800000Y-155150000D01*
X201550000Y-154310000D02*
X201550000Y-152150000D01*
X182800000Y-151310000D02*
X182800000Y-149150000D01*
X187946300Y-87500000D02*
X187946300Y-88053700D01*
X188710496Y-92074100D02*
X188944180Y-92074100D01*
X164050000Y-146310000D02*
X149300000Y-146310000D01*
X201035000Y-154825000D02*
X186315000Y-154825000D01*
X126550000Y-157310000D02*
X126035000Y-157825000D01*
X188944180Y-92074100D02*
X189925900Y-93055820D01*
X202265554Y-104212500D02*
X203277500Y-105224446D01*
X187671300Y-91034904D02*
X188710496Y-92074100D01*
X126550000Y-157310000D02*
X126550000Y-155150000D01*
X189925900Y-93289504D02*
X194011396Y-97375000D01*
X126035000Y-157825000D02*
X108315000Y-157825000D01*
X182285000Y-151825000D02*
X169565000Y-151825000D01*
X200848896Y-104212500D02*
X202265554Y-104212500D01*
X145300000Y-150310000D02*
X145300000Y-148150000D01*
X194713046Y-97375000D02*
X196075000Y-98736954D01*
X130567824Y-153292176D02*
X126550000Y-157310000D01*
X169565000Y-151825000D02*
X164050000Y-146310000D01*
X203277500Y-105224446D02*
X203277500Y-152582500D01*
X186315000Y-154825000D02*
X182800000Y-151310000D01*
X187946300Y-88053700D02*
X187671300Y-88328700D01*
X196075000Y-98736954D02*
X196075000Y-99438604D01*
X196075000Y-99438604D02*
X200848896Y-104212500D01*
X189925900Y-93055820D02*
X189925900Y-93289504D01*
%TO.N,P002*%
X153825000Y-110325000D02*
X163535000Y-110325000D01*
X145300000Y-107810000D02*
X145300000Y-105650000D01*
X164050000Y-107650000D02*
X164050000Y-109810000D01*
X180000000Y-99548200D02*
X179274100Y-100274100D01*
X182800000Y-115810000D02*
X182800000Y-113650000D01*
X145615000Y-108125000D02*
X151625000Y-108125000D01*
X151625000Y-108125000D02*
X153825000Y-110325000D01*
X126550000Y-121810000D02*
X131791650Y-121810000D01*
X126550000Y-121810000D02*
X126550000Y-119650000D01*
X107800000Y-121810000D02*
X107800000Y-119650000D01*
X191800000Y-124810000D02*
X201550000Y-124810000D01*
X173355001Y-109810000D02*
X179355001Y-115810000D01*
X201550000Y-124810000D02*
X201550000Y-122650000D01*
X107800000Y-121810000D02*
X108315000Y-122325000D01*
X179274100Y-112284100D02*
X182800000Y-115810000D01*
X126035000Y-122325000D02*
X126550000Y-121810000D01*
X182800000Y-115810000D02*
X191800000Y-124810000D01*
X180000000Y-99300000D02*
X180000000Y-99548200D01*
X145300000Y-107810000D02*
X145615000Y-108125000D01*
X131791650Y-121810000D02*
X145300000Y-108301650D01*
X164050000Y-109810000D02*
X173355001Y-109810000D01*
X163535000Y-110325000D02*
X164050000Y-109810000D01*
X108315000Y-122325000D02*
X126035000Y-122325000D01*
X145300000Y-108301650D02*
X145300000Y-107810000D01*
X179355001Y-115810000D02*
X182800000Y-115810000D01*
X179274100Y-100274100D02*
X179274100Y-112284100D01*
%TO.N,P029*%
X199757784Y-110274100D02*
X201550000Y-112066316D01*
X169565000Y-98575000D02*
X182285000Y-98575000D01*
X182800000Y-98060000D02*
X186020000Y-94840000D01*
X164050000Y-90900000D02*
X164050000Y-93060000D01*
X201550000Y-112066316D02*
X201550000Y-113560000D01*
X201550000Y-113560000D02*
X201550000Y-111400000D01*
X107800000Y-104060000D02*
X110240000Y-106500000D01*
X182800000Y-98060000D02*
X182800000Y-95900000D01*
X150000000Y-93000000D02*
X150060000Y-93060000D01*
X126550000Y-104060000D02*
X138300000Y-104060000D01*
X164050000Y-93060000D02*
X169565000Y-98575000D01*
X186020000Y-94840000D02*
X186020000Y-85120000D01*
X126550000Y-104060000D02*
X126550000Y-101900000D01*
X182285000Y-98575000D02*
X182800000Y-98060000D01*
X186528116Y-98060000D02*
X198742216Y-110274100D01*
X107800000Y-104060000D02*
X107800000Y-101900000D01*
X182800000Y-98060000D02*
X186528116Y-98060000D01*
X145300000Y-97060000D02*
X149360000Y-93000000D01*
X145300000Y-97060000D02*
X145300000Y-94900000D01*
X150060000Y-93060000D02*
X164050000Y-93060000D01*
X124110000Y-106500000D02*
X126550000Y-104060000D01*
X149360000Y-93000000D02*
X150000000Y-93000000D01*
X138300000Y-104060000D02*
X145300000Y-97060000D01*
X110240000Y-106500000D02*
X124110000Y-106500000D01*
X198742216Y-110274100D02*
X199757784Y-110274100D01*
%TO.N,P115*%
X188757784Y-92524100D02*
X188524100Y-92524100D01*
X182141300Y-83918700D02*
X180940000Y-85120000D01*
X179011650Y-133560000D02*
X182800000Y-133560000D01*
X188524100Y-92524100D02*
X187221300Y-91221300D01*
X187221300Y-84622405D02*
X186517595Y-83918700D01*
X193825000Y-97825000D02*
X189475900Y-93475900D01*
X145300000Y-132560000D02*
X159050000Y-132560000D01*
X138300000Y-139560000D02*
X145300000Y-132560000D01*
X164050000Y-127560000D02*
X173011650Y-127560000D01*
X201550000Y-136560000D02*
X201550000Y-134400000D01*
X202079158Y-104662500D02*
X200662500Y-104662500D01*
X182800000Y-133560000D02*
X186315000Y-137075000D01*
X145300000Y-132560000D02*
X145300000Y-130400000D01*
X201550000Y-136560000D02*
X202827500Y-135282500D01*
X107800000Y-132560000D02*
X107800000Y-130400000D01*
X195625000Y-99625000D02*
X195625000Y-98923350D01*
X194526650Y-97825000D02*
X193825000Y-97825000D01*
X126550000Y-139560000D02*
X126550000Y-137400000D01*
X187221300Y-91221300D02*
X187221300Y-84622405D01*
X186517595Y-83918700D02*
X182141300Y-83918700D01*
X202827500Y-105410842D02*
X202079158Y-104662500D01*
X186315000Y-137075000D02*
X201035000Y-137075000D01*
X202827500Y-135282500D02*
X202827500Y-105410842D01*
X159050000Y-132560000D02*
X164050000Y-127560000D01*
X189475900Y-93242216D02*
X188757784Y-92524100D01*
X112075000Y-140075000D02*
X126035000Y-140075000D01*
X200662500Y-104662500D02*
X195625000Y-99625000D01*
X189475900Y-93475900D02*
X189475900Y-93242216D01*
X182800000Y-133560000D02*
X182800000Y-131400000D01*
X107800000Y-132560000D02*
X107800000Y-135800000D01*
X126035000Y-140075000D02*
X126550000Y-139560000D01*
X201035000Y-137075000D02*
X201550000Y-136560000D01*
X195625000Y-98923350D02*
X194526650Y-97825000D01*
X164050000Y-125400000D02*
X164050000Y-127560000D01*
X126550000Y-139560000D02*
X138300000Y-139560000D01*
X107800000Y-135800000D02*
X112075000Y-140075000D01*
X173011650Y-127560000D02*
X179011650Y-133560000D01*
%TO.N,P031*%
X164050000Y-74310000D02*
X173355001Y-74310000D01*
X201550000Y-83310000D02*
X200941300Y-83918700D01*
X189761300Y-83918700D02*
X188560000Y-85120000D01*
X107800000Y-79310000D02*
X109365000Y-80875000D01*
X117326650Y-80875000D02*
X122761650Y-86310000D01*
X173355001Y-74310000D02*
X179355001Y-80310000D01*
X201550000Y-81150000D02*
X201550000Y-83310000D01*
X164050000Y-74310000D02*
X164050000Y-72150000D01*
X183750000Y-80310000D02*
X182800000Y-80310000D01*
X182800000Y-80310000D02*
X182800000Y-78150000D01*
X109365000Y-80875000D02*
X117326650Y-80875000D01*
X145300000Y-79310000D02*
X145300000Y-77150000D01*
X188560000Y-85120000D02*
X183750000Y-80310000D01*
X179355001Y-80310000D02*
X182800000Y-80310000D01*
X126550000Y-86310000D02*
X126550000Y-84150000D01*
X107800000Y-79310000D02*
X107800000Y-77150000D01*
X159689695Y-74310000D02*
X164050000Y-74310000D01*
X122761650Y-86310000D02*
X126550000Y-86310000D01*
X200941300Y-83918700D02*
X189761300Y-83918700D01*
X126550000Y-86310000D02*
X138300000Y-86310000D01*
X154689695Y-79310000D02*
X159689695Y-74310000D01*
X145300000Y-79310000D02*
X154689695Y-79310000D01*
X138300000Y-86310000D02*
X145300000Y-79310000D01*
%TO.N,GND*%
X197500000Y-87000000D02*
X196180000Y-85680000D01*
X193640000Y-69880000D02*
X191100000Y-69880000D01*
X203000000Y-75000000D02*
X202976000Y-75024000D01*
X202976000Y-84476000D02*
X203000000Y-84500000D01*
X202050000Y-74000000D02*
X203000000Y-74950000D01*
X198500000Y-87000000D02*
X197500000Y-87000000D01*
X191100000Y-69880000D02*
X191380000Y-69880000D01*
X195500000Y-74000000D02*
X202050000Y-74000000D01*
X201000000Y-86500000D02*
X197560000Y-86500000D01*
X191380000Y-69880000D02*
X195500000Y-74000000D01*
X197560000Y-86500000D02*
X196180000Y-85120000D01*
X196180000Y-85680000D02*
X196180000Y-85120000D01*
X202976000Y-75024000D02*
X202976000Y-84476000D01*
X203000000Y-84500000D02*
X201000000Y-86500000D01*
X203000000Y-74950000D02*
X203000000Y-75000000D01*
%TO.N,RST*%
X198500000Y-88500000D02*
X197020000Y-88500000D01*
X197020000Y-88500000D02*
X193640000Y-85120000D01*
%TO.N,pos*%
X199000000Y-96500000D02*
X195500000Y-96500000D01*
%TD*%
M02*
