%TF.GenerationSoftware,KiCad,Pcbnew,9.0.8*%
%TF.CreationDate,2026-03-28T13:14:48+01:00*%
%TF.ProjectId,finished_left,66696e69-7368-4656-945f-6c6566742e6b,v1.0.0*%
%TF.SameCoordinates,Original*%
%TF.FileFunction,Copper,L2,Bot*%
%TF.FilePolarity,Positive*%
%FSLAX46Y46*%
G04 Gerber Fmt 4.6, Leading zero omitted, Abs format (unit mm)*
G04 Created by KiCad (PCBNEW 9.0.8) date 2026-03-28 13:14:48*
%MOMM*%
%LPD*%
G01*
G04 APERTURE LIST*
%TA.AperFunction,SMDPad,CuDef*%
%ADD10R,0.900000X0.900000*%
%TD*%
%TA.AperFunction,WasherPad*%
%ADD11C,1.000000*%
%TD*%
%TA.AperFunction,SMDPad,CuDef*%
%ADD12R,1.250000X0.900000*%
%TD*%
%TA.AperFunction,SMDPad,CuDef*%
%ADD13R,2.600000X2.600000*%
%TD*%
%TA.AperFunction,ComponentPad*%
%ADD14R,1.778000X1.778000*%
%TD*%
%TA.AperFunction,SMDPad,CuDef*%
%ADD15R,1.200000X0.900000*%
%TD*%
%TA.AperFunction,ComponentPad*%
%ADD16C,1.905000*%
%TD*%
%TA.AperFunction,ComponentPad*%
%ADD17R,1.700000X1.200000*%
%TD*%
%TA.AperFunction,ComponentPad*%
%ADD18O,1.700000X1.200000*%
%TD*%
%TA.AperFunction,SMDPad,CuDef*%
%ADD19R,1.000000X1.550000*%
%TD*%
%TA.AperFunction,ComponentPad*%
%ADD20C,1.752600*%
%TD*%
%TA.AperFunction,ViaPad*%
%ADD21C,0.800000*%
%TD*%
%TA.AperFunction,Conductor*%
%ADD22C,0.250000*%
%TD*%
G04 APERTURE END LIST*
D10*
%TO.P,T1,*%
%TO.N,*%
X203650000Y-96050000D03*
X201450000Y-96050000D03*
D11*
X202550000Y-98250000D03*
X202550000Y-101250000D03*
D10*
X203650000Y-103450000D03*
X201450000Y-103450000D03*
D12*
%TO.P,T1,1*%
%TO.N,pos*%
X200475000Y-97500000D03*
%TO.P,T1,2*%
%TO.N,RAW*%
X200475000Y-100500000D03*
%TO.P,T1,3*%
%TO.N,N/C*%
X200475000Y-102000000D03*
%TD*%
D13*
%TO.P,S19,1*%
%TO.N,P100*%
X159525000Y-90700000D03*
%TO.P,S19,2*%
%TO.N,fourth_top*%
X147975000Y-88500000D03*
%TD*%
%TO.P,S7,1*%
%TO.N,P022*%
X122025000Y-138200000D03*
%TO.P,S7,2*%
%TO.N,second_bottom*%
X110475000Y-136000000D03*
%TD*%
D14*
%TO.P,D16,1*%
%TO.N,P113*%
X182800000Y-151310000D03*
D15*
X182800000Y-149150000D03*
%TO.P,D16,2*%
%TO.N,fifth_mod*%
X182800000Y-145850000D03*
D16*
X182800000Y-143690000D03*
%TD*%
D13*
%TO.P,S20,1*%
%TO.N,P100*%
X159525000Y-72950000D03*
%TO.P,S20,2*%
%TO.N,fourth_num*%
X147975000Y-70750000D03*
%TD*%
%TO.P,S14,1*%
%TO.N,P024*%
X140775000Y-95700000D03*
%TO.P,S14,2*%
%TO.N,third_top*%
X129225000Y-93500000D03*
%TD*%
D14*
%TO.P,D5,1*%
%TO.N,P115*%
X126550000Y-139560000D03*
D15*
X126550000Y-137400000D03*
%TO.P,D5,2*%
%TO.N,second_bottom*%
X126550000Y-134100000D03*
D16*
X126550000Y-131940000D03*
%TD*%
D13*
%TO.P,S2,1*%
%TO.N,P020*%
X103275000Y-138200000D03*
%TO.P,S2,2*%
%TO.N,first_bottom*%
X91725000Y-136000000D03*
%TD*%
%TO.P,S18,1*%
%TO.N,P100*%
X159525000Y-108450000D03*
%TO.P,S18,2*%
%TO.N,fourth_home*%
X147975000Y-106250000D03*
%TD*%
D14*
%TO.P,D6,1*%
%TO.N,P002*%
X126550000Y-121810000D03*
D15*
X126550000Y-119650000D03*
%TO.P,D6,2*%
%TO.N,second_home*%
X126550000Y-116350000D03*
D16*
X126550000Y-114190000D03*
%TD*%
D14*
%TO.P,D30,1*%
%TO.N,P029*%
X164050000Y-93060000D03*
D15*
X164050000Y-90900000D03*
%TO.P,D30,2*%
%TO.N,fourth_top*%
X164050000Y-87600000D03*
D16*
X164050000Y-85440000D03*
%TD*%
D14*
%TO.P,D9,1*%
%TO.N,P113*%
X145300000Y-150310000D03*
D15*
X145300000Y-148150000D03*
%TO.P,D9,2*%
%TO.N,third_mod*%
X145300000Y-144850000D03*
D16*
X145300000Y-142690000D03*
%TD*%
D14*
%TO.P,D11,1*%
%TO.N,P029*%
X145300000Y-97060000D03*
D15*
X145300000Y-94900000D03*
%TO.P,D11,2*%
%TO.N,third_top*%
X145300000Y-91600000D03*
D16*
X145300000Y-89440000D03*
%TD*%
D14*
%TO.P,D28,1*%
%TO.N,P002*%
X145300000Y-107810000D03*
D15*
X145300000Y-105650000D03*
%TO.P,D28,2*%
%TO.N,third_home*%
X145300000Y-102350000D03*
D16*
X145300000Y-100190000D03*
%TD*%
D14*
%TO.P,D1,1*%
%TO.N,P113*%
X107800000Y-157310000D03*
D15*
X107800000Y-155150000D03*
%TO.P,D1,2*%
%TO.N,first_mod*%
X107800000Y-151850000D03*
D16*
X107800000Y-149690000D03*
%TD*%
D13*
%TO.P,S30,1*%
%TO.N,P017*%
X197025000Y-81950000D03*
%TO.P,S30,2*%
%TO.N,sixth_num*%
X185475000Y-79750000D03*
%TD*%
D14*
%TO.P,D3,1*%
%TO.N,P029*%
X107800000Y-104060000D03*
D15*
X107800000Y-101900000D03*
%TO.P,D3,2*%
%TO.N,first_top*%
X107800000Y-98600000D03*
D16*
X107800000Y-96440000D03*
%TD*%
D14*
%TO.P,D27,1*%
%TO.N,P031*%
X107800000Y-79310000D03*
D15*
X107800000Y-77150000D03*
%TO.P,D27,2*%
%TO.N,first_num*%
X107800000Y-73850000D03*
D16*
X107800000Y-71690000D03*
%TD*%
D14*
%TO.P,D29,1*%
%TO.N,P113*%
X164050000Y-146310000D03*
D15*
X164050000Y-144150000D03*
%TO.P,D29,2*%
%TO.N,fourth_mod*%
X164050000Y-140850000D03*
D16*
X164050000Y-138690000D03*
%TD*%
D13*
%TO.P,S25,1*%
%TO.N,P011*%
X178275000Y-78950000D03*
%TO.P,S25,2*%
%TO.N,fifth_num*%
X166725000Y-76750000D03*
%TD*%
%TO.P,S8,1*%
%TO.N,P022*%
X122025000Y-120450000D03*
%TO.P,S8,2*%
%TO.N,second_home*%
X110475000Y-118250000D03*
%TD*%
D14*
%TO.P,D20,1*%
%TO.N,P031*%
X182800000Y-80310000D03*
D15*
X182800000Y-78150000D03*
%TO.P,D20,2*%
%TO.N,fifth_num*%
X182800000Y-74850000D03*
D16*
X182800000Y-72690000D03*
%TD*%
D14*
%TO.P,D18,1*%
%TO.N,P002*%
X182800000Y-115810000D03*
D15*
X182800000Y-113650000D03*
%TO.P,D18,2*%
%TO.N,fifth_home*%
X182800000Y-110350000D03*
D16*
X182800000Y-108190000D03*
%TD*%
D14*
%TO.P,D8,1*%
%TO.N,P031*%
X126550000Y-86310000D03*
D15*
X126550000Y-84150000D03*
%TO.P,D8,2*%
%TO.N,second_num*%
X126550000Y-80850000D03*
D16*
X126550000Y-78690000D03*
%TD*%
D13*
%TO.P,S6,1*%
%TO.N,P022*%
X122025000Y-155950000D03*
%TO.P,S6,2*%
%TO.N,second_mod*%
X110475000Y-153750000D03*
%TD*%
%TO.P,S26,1*%
%TO.N,P017*%
X197025000Y-152950000D03*
%TO.P,S26,2*%
%TO.N,sixth_mod*%
X185475000Y-150750000D03*
%TD*%
D14*
%TO.P,D7,1*%
%TO.N,P029*%
X126550000Y-104060000D03*
D15*
X126550000Y-101900000D03*
%TO.P,D7,2*%
%TO.N,second_top*%
X126550000Y-98600000D03*
D16*
X126550000Y-96440000D03*
%TD*%
D14*
%TO.P,D23,1*%
%TO.N,P031*%
X201550000Y-83310000D03*
D15*
X201550000Y-81150000D03*
%TO.P,D23,2*%
%TO.N,sixth_num*%
X201550000Y-77850000D03*
D16*
X201550000Y-75690000D03*
%TD*%
D17*
%TO.P,JST1,1*%
%TO.N,pos*%
X149250000Y-98000000D03*
D18*
%TO.P,JST1,2*%
%TO.N,GND*%
X149250000Y-96000000D03*
%TD*%
D13*
%TO.P,S3,1*%
%TO.N,P020*%
X103275000Y-120450000D03*
%TO.P,S3,2*%
%TO.N,first_home*%
X91725000Y-118250000D03*
%TD*%
%TO.P,S13,1*%
%TO.N,P024*%
X140775000Y-113450000D03*
%TO.P,S13,2*%
%TO.N,third_home*%
X129225000Y-111250000D03*
%TD*%
%TO.P,S16,1*%
%TO.N,P100*%
X159525000Y-143950000D03*
%TO.P,S16,2*%
%TO.N,fourth_mod*%
X147975000Y-141750000D03*
%TD*%
%TO.P,S17,1*%
%TO.N,P100*%
X159525000Y-126200000D03*
%TO.P,S17,2*%
%TO.N,fourth_bottom*%
X147975000Y-124000000D03*
%TD*%
%TO.P,S5,1*%
%TO.N,P020*%
X103275000Y-84950000D03*
%TO.P,S5,2*%
%TO.N,first_num*%
X91725000Y-82750000D03*
%TD*%
D14*
%TO.P,D26,1*%
%TO.N,P115*%
X107800000Y-132560000D03*
D15*
X107800000Y-130400000D03*
%TO.P,D26,2*%
%TO.N,first_bottom*%
X107800000Y-127100000D03*
D16*
X107800000Y-124940000D03*
%TD*%
D14*
%TO.P,D17,1*%
%TO.N,P115*%
X182800000Y-133560000D03*
D15*
X182800000Y-131400000D03*
%TO.P,D17,2*%
%TO.N,fifth_bottom*%
X182800000Y-128100000D03*
D16*
X182800000Y-125940000D03*
%TD*%
D14*
%TO.P,D24,1*%
%TO.N,P029*%
X201550000Y-113560000D03*
D15*
X201550000Y-111400000D03*
%TO.P,D24,2*%
%TO.N,sixth_top*%
X201550000Y-108100000D03*
D16*
X201550000Y-105940000D03*
%TD*%
D13*
%TO.P,S24,1*%
%TO.N,P011*%
X178275000Y-96700000D03*
%TO.P,S24,2*%
%TO.N,fifth_top*%
X166725000Y-94500000D03*
%TD*%
%TO.P,S23,1*%
%TO.N,P011*%
X178275000Y-114450000D03*
%TO.P,S23,2*%
%TO.N,fifth_home*%
X166725000Y-112250000D03*
%TD*%
%TO.P,S11,1*%
%TO.N,P024*%
X140775000Y-148950000D03*
%TO.P,S11,2*%
%TO.N,third_mod*%
X129225000Y-146750000D03*
%TD*%
%TO.P,S22,1*%
%TO.N,P011*%
X178275000Y-132200000D03*
%TO.P,S22,2*%
%TO.N,fifth_bottom*%
X166725000Y-130000000D03*
%TD*%
%TO.P,S15,1*%
%TO.N,P024*%
X140775000Y-77950000D03*
%TO.P,S15,2*%
%TO.N,third_num*%
X129225000Y-75750000D03*
%TD*%
%TO.P,S28,1*%
%TO.N,P017*%
X197025000Y-117450000D03*
%TO.P,S28,2*%
%TO.N,sixth_home*%
X185475000Y-115250000D03*
%TD*%
D14*
%TO.P,D19,1*%
%TO.N,P029*%
X182800000Y-98060000D03*
D15*
X182800000Y-95900000D03*
%TO.P,D19,2*%
%TO.N,fifth_top*%
X182800000Y-92600000D03*
D16*
X182800000Y-90440000D03*
%TD*%
D14*
%TO.P,D21,1*%
%TO.N,P113*%
X201550000Y-154310000D03*
D15*
X201550000Y-152150000D03*
%TO.P,D21,2*%
%TO.N,sixth_mod*%
X201550000Y-148850000D03*
D16*
X201550000Y-146690000D03*
%TD*%
D14*
%TO.P,D4,1*%
%TO.N,P113*%
X126550000Y-157310000D03*
D15*
X126550000Y-155150000D03*
%TO.P,D4,2*%
%TO.N,second_mod*%
X126550000Y-151850000D03*
D16*
X126550000Y-149690000D03*
%TD*%
D14*
%TO.P,D10,1*%
%TO.N,P115*%
X145300000Y-132560000D03*
D15*
X145300000Y-130400000D03*
%TO.P,D10,2*%
%TO.N,third_bottom*%
X145300000Y-127100000D03*
D16*
X145300000Y-124940000D03*
%TD*%
D13*
%TO.P,S12,1*%
%TO.N,P024*%
X140775000Y-131200000D03*
%TO.P,S12,2*%
%TO.N,third_bottom*%
X129225000Y-129000000D03*
%TD*%
D14*
%TO.P,D2,1*%
%TO.N,P002*%
X107800000Y-121810000D03*
D15*
X107800000Y-119650000D03*
%TO.P,D2,2*%
%TO.N,first_home*%
X107800000Y-116350000D03*
D16*
X107800000Y-114190000D03*
%TD*%
D13*
%TO.P,S21,1*%
%TO.N,P011*%
X178275000Y-149950000D03*
%TO.P,S21,2*%
%TO.N,fifth_mod*%
X166725000Y-147750000D03*
%TD*%
D14*
%TO.P,D15,1*%
%TO.N,P031*%
X164050000Y-74310000D03*
D15*
X164050000Y-72150000D03*
%TO.P,D15,2*%
%TO.N,fourth_num*%
X164050000Y-68850000D03*
D16*
X164050000Y-66690000D03*
%TD*%
D13*
%TO.P,S27,1*%
%TO.N,P017*%
X197025000Y-135200000D03*
%TO.P,S27,2*%
%TO.N,sixth_bottom*%
X185475000Y-133000000D03*
%TD*%
D19*
%TO.P,B1,1*%
%TO.N,GND*%
X203600000Y-88325000D03*
X203600000Y-93575000D03*
%TO.P,B1,2*%
%TO.N,RST*%
X201900000Y-88325000D03*
X201900000Y-93575000D03*
%TD*%
D13*
%TO.P,S1,1*%
%TO.N,P020*%
X103275000Y-155950000D03*
%TO.P,S1,2*%
%TO.N,first_mod*%
X91725000Y-153750000D03*
%TD*%
D14*
%TO.P,D22,1*%
%TO.N,P115*%
X201550000Y-136560000D03*
D15*
X201550000Y-134400000D03*
%TO.P,D22,2*%
%TO.N,sixth_bottom*%
X201550000Y-131100000D03*
D16*
X201550000Y-128940000D03*
%TD*%
D13*
%TO.P,S29,1*%
%TO.N,P017*%
X197025000Y-99700000D03*
%TO.P,S29,2*%
%TO.N,sixth_top*%
X185475000Y-97500000D03*
%TD*%
D20*
%TO.P,MCU1,1*%
%TO.N,P006*%
X198720000Y-69880000D03*
%TO.P,MCU1,2*%
%TO.N,P008*%
X196180000Y-69880000D03*
%TO.P,MCU1,3*%
%TO.N,GND*%
X193640000Y-69880000D03*
%TO.P,MCU1,4*%
X191100000Y-69880000D03*
%TO.P,MCU1,5*%
%TO.N,P017*%
X188560000Y-69880000D03*
%TO.P,MCU1,6*%
%TO.N,P020*%
X186020000Y-69880000D03*
%TO.P,MCU1,7*%
%TO.N,P022*%
X183480000Y-69880000D03*
%TO.P,MCU1,8*%
%TO.N,P024*%
X180940000Y-69880000D03*
%TO.P,MCU1,9*%
%TO.N,P100*%
X178400000Y-69880000D03*
%TO.P,MCU1,10*%
%TO.N,P011*%
X175860000Y-69880000D03*
%TO.P,MCU1,11*%
%TO.N,P104*%
X173320000Y-69880000D03*
%TO.P,MCU1,12*%
%TO.N,P106*%
X170780000Y-69880000D03*
%TO.P,MCU1,13*%
%TO.N,P009*%
X170780000Y-85120000D03*
%TO.P,MCU1,14*%
%TO.N,P010*%
X173320000Y-85120000D03*
%TO.P,MCU1,15*%
%TO.N,P111*%
X175860000Y-85120000D03*
%TO.P,MCU1,16*%
%TO.N,P113*%
X178400000Y-85120000D03*
%TO.P,MCU1,17*%
%TO.N,P115*%
X180940000Y-85120000D03*
%TO.P,MCU1,18*%
%TO.N,P002*%
X183480000Y-85120000D03*
%TO.P,MCU1,19*%
%TO.N,P029*%
X186020000Y-85120000D03*
%TO.P,MCU1,20*%
%TO.N,P031*%
X188560000Y-85120000D03*
%TO.P,MCU1,21*%
%TO.N,VCC*%
X191100000Y-85120000D03*
%TO.P,MCU1,22*%
%TO.N,RST*%
X193640000Y-85120000D03*
%TO.P,MCU1,23*%
%TO.N,GND*%
X196180000Y-85120000D03*
%TO.P,MCU1,24*%
%TO.N,RAW*%
X198720000Y-85120000D03*
%TD*%
D14*
%TO.P,D13,1*%
%TO.N,P115*%
X164050000Y-127560000D03*
D15*
X164050000Y-125400000D03*
%TO.P,D13,2*%
%TO.N,fourth_bottom*%
X164050000Y-122100000D03*
D16*
X164050000Y-119940000D03*
%TD*%
D13*
%TO.P,S10,1*%
%TO.N,P022*%
X122025000Y-84950000D03*
%TO.P,S10,2*%
%TO.N,second_num*%
X110475000Y-82750000D03*
%TD*%
%TO.P,S4,1*%
%TO.N,P020*%
X103275000Y-102700000D03*
%TO.P,S4,2*%
%TO.N,first_top*%
X91725000Y-100500000D03*
%TD*%
D14*
%TO.P,D14,1*%
%TO.N,P002*%
X164050000Y-109810000D03*
D15*
X164050000Y-107650000D03*
%TO.P,D14,2*%
%TO.N,fourth_home*%
X164050000Y-104350000D03*
D16*
X164050000Y-102190000D03*
%TD*%
D13*
%TO.P,S9,1*%
%TO.N,P022*%
X122025000Y-102700000D03*
%TO.P,S9,2*%
%TO.N,second_top*%
X110475000Y-100500000D03*
%TD*%
D14*
%TO.P,D25,1*%
%TO.N,P002*%
X201550000Y-124810000D03*
D15*
X201550000Y-122650000D03*
%TO.P,D25,2*%
%TO.N,sixth_home*%
X201550000Y-119350000D03*
D16*
X201550000Y-117190000D03*
%TD*%
D14*
%TO.P,D12,1*%
%TO.N,P031*%
X145300000Y-79310000D03*
D15*
X145300000Y-77150000D03*
%TO.P,D12,2*%
%TO.N,third_num*%
X145300000Y-73850000D03*
D16*
X145300000Y-71690000D03*
%TD*%
D21*
%TO.N,P100*%
X159525000Y-88000000D03*
X159525000Y-94000000D03*
X159500000Y-103000000D03*
X159500000Y-138500000D03*
X159500000Y-115500000D03*
X159525000Y-75500000D03*
X159500000Y-120500000D03*
X159500000Y-133500000D03*
%TO.N,P011*%
X178500000Y-145000000D03*
X178500000Y-92000000D03*
X178275000Y-99300000D03*
X178500000Y-122000000D03*
X178500000Y-140000000D03*
X178500000Y-82000000D03*
X178500000Y-127000000D03*
X178500000Y-109000000D03*
X178000000Y-76500000D03*
%TO.N,P017*%
X197000000Y-79500000D03*
X197000000Y-77000000D03*
%TO.N,P113*%
X187946300Y-87500000D03*
%TO.N,P002*%
X180000000Y-99300000D03*
%TO.N,GND*%
X198500000Y-87000000D03*
%TO.N,RST*%
X198500000Y-88500000D03*
%TO.N,pos*%
X199000000Y-96500000D03*
X195500000Y-96500000D03*
%TD*%
D22*
%TO.N,P020*%
X150733024Y-64010500D02*
X147693524Y-67050000D01*
X126892762Y-66470842D02*
X126681802Y-66681802D01*
X101400000Y-104575000D02*
X92550000Y-104575000D01*
X186020000Y-69880000D02*
X184640000Y-68500000D01*
X101400000Y-157825000D02*
X92550000Y-157825000D01*
X101400000Y-140075000D02*
X92550000Y-140075000D01*
X90000000Y-98225000D02*
X103275000Y-84950000D01*
X90000000Y-133725000D02*
X103275000Y-120450000D01*
X127265554Y-66470842D02*
X126892762Y-66470842D01*
X103275000Y-102700000D02*
X101400000Y-104575000D01*
X182736396Y-68500000D02*
X181286396Y-67050000D01*
X127844712Y-67050000D02*
X127265554Y-66470842D01*
X181286396Y-67050000D02*
X166853054Y-67050000D01*
X166853054Y-67050000D02*
X163813554Y-64010500D01*
X120379920Y-69500000D02*
X104929920Y-84950000D01*
X90100000Y-155375000D02*
X90100000Y-151375000D01*
X103275000Y-120450000D02*
X101400000Y-122325000D01*
X126681802Y-66681802D02*
X126500000Y-66500000D01*
X126500000Y-69500000D02*
X120379920Y-69500000D01*
X103275000Y-138200000D02*
X101400000Y-140075000D01*
X90100000Y-119875000D02*
X90100000Y-115875000D01*
X90100000Y-151375000D02*
X103275000Y-138200000D01*
X147693524Y-67050000D02*
X127844712Y-67050000D01*
X90100000Y-115875000D02*
X103275000Y-102700000D01*
X92550000Y-140075000D02*
X90000000Y-137525000D01*
X126500000Y-66500000D02*
X126500000Y-69500000D01*
X104929920Y-84950000D02*
X103275000Y-84950000D01*
X92550000Y-122325000D02*
X90100000Y-119875000D01*
X92550000Y-104575000D02*
X90000000Y-102025000D01*
X101400000Y-122325000D02*
X92550000Y-122325000D01*
X92550000Y-157825000D02*
X90100000Y-155375000D01*
X163813554Y-64010500D02*
X150733024Y-64010500D01*
X184640000Y-68500000D02*
X182736396Y-68500000D01*
X90000000Y-102025000D02*
X90000000Y-98225000D01*
X103275000Y-155950000D02*
X101400000Y-157825000D01*
X90000000Y-137525000D02*
X90000000Y-133725000D01*
%TO.N,first_mod*%
X91725000Y-153750000D02*
X91725000Y-151041316D01*
X91725000Y-151041316D02*
X94855816Y-147910500D01*
X106020500Y-147910500D02*
X107800000Y-149690000D01*
X107800000Y-149690000D02*
X107800000Y-151850000D01*
X94855816Y-147910500D02*
X106020500Y-147910500D01*
%TO.N,first_bottom*%
X100076316Y-124940000D02*
X107800000Y-124940000D01*
X107800000Y-124940000D02*
X107800000Y-127100000D01*
X91725000Y-136000000D02*
X91725000Y-133291316D01*
X91725000Y-133291316D02*
X100076316Y-124940000D01*
%TO.N,first_home*%
X91725000Y-118250000D02*
X91725000Y-115541316D01*
X106020500Y-112410500D02*
X107800000Y-114190000D01*
X91725000Y-115541316D02*
X94855816Y-112410500D01*
X94855816Y-112410500D02*
X106020500Y-112410500D01*
X107800000Y-114190000D02*
X107800000Y-116350000D01*
%TO.N,first_top*%
X91725000Y-100500000D02*
X91725000Y-97791316D01*
X107800000Y-96440000D02*
X107800000Y-98600000D01*
X91725000Y-97791316D02*
X94855816Y-94660500D01*
X106020500Y-94660500D02*
X107800000Y-96440000D01*
X94855816Y-94660500D02*
X106020500Y-94660500D01*
%TO.N,first_num*%
X91725000Y-80041316D02*
X100076316Y-71690000D01*
X91725000Y-82750000D02*
X91725000Y-80041316D01*
X107800000Y-71690000D02*
X107800000Y-73850000D01*
X100076316Y-71690000D02*
X107800000Y-71690000D01*
%TO.N,P022*%
X122025000Y-138200000D02*
X120150000Y-140075000D01*
X122025000Y-102700000D02*
X119725000Y-105000000D01*
X127079158Y-66920842D02*
X127079158Y-77412500D01*
X127658316Y-67500000D02*
X127079158Y-66920842D01*
X112075000Y-140075000D02*
X110000000Y-138000000D01*
X109125000Y-137625000D02*
X108625000Y-137625000D01*
X181100000Y-67500000D02*
X166666658Y-67500000D01*
X163627158Y-64460500D02*
X150919420Y-64460500D01*
X108500000Y-137500000D02*
X108500000Y-134500000D01*
X108725000Y-102000000D02*
X108725000Y-98250000D01*
X122025000Y-120975000D02*
X122025000Y-120450000D01*
X128000000Y-81500000D02*
X127000000Y-82500000D01*
X120150000Y-122325000D02*
X111300000Y-122325000D01*
X120150000Y-140075000D02*
X112075000Y-140075000D01*
X122025000Y-120450000D02*
X120150000Y-122325000D01*
X122025000Y-155950000D02*
X120150000Y-157825000D01*
X127000000Y-82500000D02*
X123200000Y-82500000D01*
X183480000Y-69880000D02*
X181100000Y-67500000D01*
X147879920Y-67500000D02*
X127658316Y-67500000D01*
X111725000Y-105000000D02*
X108725000Y-102000000D01*
X111300000Y-122325000D02*
X108850000Y-119875000D01*
X108850000Y-119875000D02*
X108850000Y-115875000D01*
X150919420Y-64460500D02*
X147879920Y-67500000D01*
X122025000Y-83675000D02*
X122025000Y-84950000D01*
X110000000Y-138000000D02*
X109500000Y-138000000D01*
X109500000Y-138000000D02*
X109125000Y-137625000D01*
X128000000Y-78333342D02*
X128000000Y-81500000D01*
X119725000Y-105000000D02*
X111725000Y-105000000D01*
X108850000Y-151375000D02*
X122025000Y-138200000D01*
X108625000Y-137625000D02*
X108500000Y-137500000D01*
X120150000Y-157825000D02*
X111300000Y-157825000D01*
X108850000Y-155375000D02*
X108850000Y-151375000D01*
X111300000Y-157825000D02*
X108850000Y-155375000D01*
X166666658Y-67500000D02*
X163627158Y-64460500D01*
X108500000Y-134500000D02*
X122025000Y-120975000D01*
X127079158Y-77412500D02*
X128000000Y-78333342D01*
X108850000Y-115875000D02*
X122025000Y-102700000D01*
X108725000Y-98250000D02*
X122025000Y-84950000D01*
X123200000Y-82500000D02*
X122025000Y-83675000D01*
%TO.N,second_mod*%
X126550000Y-151850000D02*
X126550000Y-149690000D01*
X113605816Y-147910500D02*
X124770500Y-147910500D01*
X110475000Y-151041316D02*
X113605816Y-147910500D01*
X124770500Y-147910500D02*
X126550000Y-149690000D01*
X110475000Y-153750000D02*
X110475000Y-151041316D01*
%TO.N,second_bottom*%
X110475000Y-136000000D02*
X110475000Y-133291316D01*
X110475000Y-133291316D02*
X113605816Y-130160500D01*
X126550000Y-134100000D02*
X126550000Y-131940000D01*
X113605816Y-130160500D02*
X124770500Y-130160500D01*
X124770500Y-130160500D02*
X126550000Y-131940000D01*
%TO.N,second_home*%
X110475000Y-115541316D02*
X113605816Y-112410500D01*
X110475000Y-118250000D02*
X110475000Y-115541316D01*
X124770500Y-112410500D02*
X126550000Y-114190000D01*
X113605816Y-112410500D02*
X124770500Y-112410500D01*
X126550000Y-114190000D02*
X126550000Y-116350000D01*
%TO.N,second_top*%
X113605816Y-94660500D02*
X124770500Y-94660500D01*
X110475000Y-97791316D02*
X113605816Y-94660500D01*
X110475000Y-100500000D02*
X110475000Y-97791316D01*
X126550000Y-98600000D02*
X126550000Y-96440000D01*
X124770500Y-94660500D02*
X126550000Y-96440000D01*
%TO.N,second_num*%
X124770500Y-76910500D02*
X126550000Y-78690000D01*
X110475000Y-82750000D02*
X110475000Y-80041316D01*
X126550000Y-80850000D02*
X126550000Y-78690000D01*
X110475000Y-80041316D02*
X113605816Y-76910500D01*
X113605816Y-76910500D02*
X124770500Y-76910500D01*
%TO.N,P024*%
X127500000Y-144475000D02*
X140775000Y-131200000D01*
X138900000Y-97575000D02*
X130050000Y-97575000D01*
X130050000Y-150825000D02*
X127500000Y-148275000D01*
X127500000Y-91225000D02*
X140775000Y-77950000D01*
X162863604Y-71000000D02*
X153651650Y-71000000D01*
X127600000Y-112875000D02*
X127600000Y-108875000D01*
X127600000Y-108875000D02*
X140775000Y-95700000D01*
X127500000Y-95025000D02*
X127500000Y-91225000D01*
X127500000Y-148275000D02*
X127500000Y-144475000D01*
X142725000Y-76000000D02*
X140775000Y-77950000D01*
X127500000Y-130525000D02*
X127500000Y-126725000D01*
X138900000Y-115325000D02*
X130050000Y-115325000D01*
X140775000Y-95700000D02*
X138900000Y-97575000D01*
X130050000Y-133075000D02*
X127500000Y-130525000D01*
X153651650Y-71000000D02*
X148651650Y-76000000D01*
X177385096Y-68228700D02*
X168134904Y-68228700D01*
X179560000Y-68500000D02*
X177656396Y-68500000D01*
X130050000Y-115325000D02*
X127600000Y-112875000D01*
X140775000Y-131200000D02*
X138900000Y-133075000D01*
X177656396Y-68500000D02*
X177385096Y-68228700D01*
X130050000Y-97575000D02*
X127500000Y-95025000D01*
X138900000Y-133075000D02*
X130050000Y-133075000D01*
X165813604Y-70550000D02*
X163313604Y-70550000D01*
X138900000Y-150825000D02*
X130050000Y-150825000D01*
X140775000Y-148950000D02*
X138900000Y-150825000D01*
X180940000Y-69880000D02*
X179560000Y-68500000D01*
X168134904Y-68228700D02*
X165813604Y-70550000D01*
X163313604Y-70550000D02*
X162863604Y-71000000D01*
X140775000Y-113450000D02*
X138900000Y-115325000D01*
X148651650Y-76000000D02*
X142725000Y-76000000D01*
X127500000Y-126725000D02*
X140775000Y-113450000D01*
%TO.N,third_mod*%
X145300000Y-142690000D02*
X145300000Y-144850000D01*
X129225000Y-146750000D02*
X129225000Y-144041316D01*
X129225000Y-144041316D02*
X132766316Y-140500000D01*
X143110000Y-140500000D02*
X145300000Y-142690000D01*
X132766316Y-140500000D02*
X143110000Y-140500000D01*
%TO.N,third_bottom*%
X129225000Y-129000000D02*
X129225000Y-125775000D01*
X131839500Y-123160500D02*
X143520500Y-123160500D01*
X143520500Y-123160500D02*
X145300000Y-124940000D01*
X145300000Y-124940000D02*
X145300000Y-127100000D01*
X129225000Y-125775000D02*
X131839500Y-123160500D01*
%TO.N,third_home*%
X145300000Y-102350000D02*
X145300000Y-100190000D01*
X129225000Y-108541316D02*
X137576316Y-100190000D01*
X129225000Y-111250000D02*
X129225000Y-108541316D01*
X137576316Y-100190000D02*
X145300000Y-100190000D01*
%TO.N,third_top*%
X129225000Y-90791316D02*
X132355816Y-87660500D01*
X129225000Y-93500000D02*
X129225000Y-90791316D01*
X143520500Y-87660500D02*
X145300000Y-89440000D01*
X145300000Y-91600000D02*
X145300000Y-89440000D01*
X132355816Y-87660500D02*
X143520500Y-87660500D01*
%TO.N,third_num*%
X145300000Y-73850000D02*
X145300000Y-71690000D01*
X132355816Y-69910500D02*
X143520500Y-69910500D01*
X129225000Y-75750000D02*
X129225000Y-73041316D01*
X129225000Y-73041316D02*
X132355816Y-69910500D01*
X143520500Y-69910500D02*
X145300000Y-71690000D01*
%TO.N,P100*%
X159525000Y-75500000D02*
X159525000Y-72950000D01*
X159525000Y-138525000D02*
X159500000Y-138500000D01*
X159500000Y-133500000D02*
X159500000Y-133000000D01*
X159525000Y-103025000D02*
X159500000Y-103000000D01*
X159525000Y-132975000D02*
X159525000Y-126200000D01*
X177198700Y-68678700D02*
X168321300Y-68678700D01*
X161550000Y-72950000D02*
X159525000Y-72950000D01*
X159525000Y-94000000D02*
X159525000Y-90700000D01*
X163500000Y-71000000D02*
X161550000Y-72950000D01*
X159525000Y-115475000D02*
X159525000Y-108450000D01*
X159525000Y-108450000D02*
X159525000Y-103025000D01*
X159500000Y-115500000D02*
X159525000Y-115475000D01*
X159525000Y-143950000D02*
X159525000Y-138525000D01*
X159525000Y-120525000D02*
X159500000Y-120500000D01*
X159500000Y-133000000D02*
X159525000Y-132975000D01*
X178400000Y-69880000D02*
X177198700Y-68678700D01*
X159525000Y-88000000D02*
X159525000Y-90700000D01*
X168321300Y-68678700D02*
X166000000Y-71000000D01*
X159525000Y-126200000D02*
X159525000Y-120525000D01*
X166000000Y-71000000D02*
X163500000Y-71000000D01*
%TO.N,fourth_mod*%
X164050000Y-138566316D02*
X164050000Y-138690000D01*
X151516316Y-135500000D02*
X160983684Y-135500000D01*
X164050000Y-140850000D02*
X164050000Y-138690000D01*
X160983684Y-135500000D02*
X164050000Y-138566316D01*
X147975000Y-139041316D02*
X151516316Y-135500000D01*
X147975000Y-141750000D02*
X147975000Y-139041316D01*
%TO.N,fourth_bottom*%
X147975000Y-121291316D02*
X151105816Y-118160500D01*
X164050000Y-122100000D02*
X164050000Y-119940000D01*
X162270500Y-118160500D02*
X164050000Y-119940000D01*
X151105816Y-118160500D02*
X162270500Y-118160500D01*
X147975000Y-124000000D02*
X147975000Y-121291316D01*
%TO.N,fourth_home*%
X147975000Y-103541316D02*
X151105816Y-100410500D01*
X147975000Y-106250000D02*
X147975000Y-103541316D01*
X162270500Y-100410500D02*
X164050000Y-102190000D01*
X151105816Y-100410500D02*
X162270500Y-100410500D01*
X164050000Y-104350000D02*
X164050000Y-102190000D01*
%TO.N,fourth_top*%
X161394184Y-82660500D02*
X164050000Y-85316316D01*
X151105816Y-82660500D02*
X161394184Y-82660500D01*
X164050000Y-87600000D02*
X164050000Y-85440000D01*
X147975000Y-85791316D02*
X151105816Y-82660500D01*
X164050000Y-85316316D02*
X164050000Y-85440000D01*
X147975000Y-88500000D02*
X147975000Y-85791316D01*
%TO.N,fourth_num*%
X162270500Y-64910500D02*
X164050000Y-66690000D01*
X164050000Y-68850000D02*
X164050000Y-66690000D01*
X147975000Y-68041316D02*
X151105816Y-64910500D01*
X147975000Y-70750000D02*
X147975000Y-68041316D01*
X151105816Y-64910500D02*
X162270500Y-64910500D01*
%TO.N,P011*%
X178500000Y-82000000D02*
X178500000Y-81500000D01*
X178275000Y-132200000D02*
X178275000Y-127225000D01*
X177198700Y-80198700D02*
X177198700Y-80026300D01*
X178275000Y-81775000D02*
X178500000Y-82000000D01*
X178275000Y-121775000D02*
X178275000Y-114450000D01*
X178000000Y-76500000D02*
X178275000Y-76775000D01*
X177198700Y-80026300D02*
X178275000Y-78950000D01*
X178275000Y-92225000D02*
X178275000Y-96700000D01*
X178275000Y-127225000D02*
X178500000Y-127000000D01*
X178500000Y-140000000D02*
X178275000Y-139775000D01*
X178275000Y-76775000D02*
X178275000Y-78950000D01*
X178275000Y-149950000D02*
X178275000Y-145225000D01*
X178500000Y-92000000D02*
X178275000Y-92225000D01*
X178500000Y-109000000D02*
X178500000Y-109500000D01*
X178500000Y-109500000D02*
X178275000Y-109725000D01*
X178275000Y-99300000D02*
X178275000Y-96700000D01*
X178275000Y-109725000D02*
X178275000Y-114450000D01*
X178500000Y-122000000D02*
X178275000Y-121775000D01*
X178275000Y-145225000D02*
X178500000Y-145000000D01*
X178275000Y-78950000D02*
X178275000Y-81775000D01*
X178275000Y-139775000D02*
X178275000Y-132200000D01*
%TO.N,fifth_mod*%
X182800000Y-143690000D02*
X182800000Y-145850000D01*
X166725000Y-147750000D02*
X166725000Y-145041316D01*
X181020500Y-141910500D02*
X182800000Y-143690000D01*
X169855816Y-141910500D02*
X181020500Y-141910500D01*
X166725000Y-145041316D02*
X169855816Y-141910500D01*
%TO.N,fifth_bottom*%
X181020500Y-124160500D02*
X182800000Y-125940000D01*
X169339500Y-124160500D02*
X181020500Y-124160500D01*
X166725000Y-130000000D02*
X166725000Y-126775000D01*
X166725000Y-126775000D02*
X169339500Y-124160500D01*
X182800000Y-125940000D02*
X182800000Y-128100000D01*
%TO.N,fifth_home*%
X166725000Y-112250000D02*
X166725000Y-109541316D01*
X182800000Y-108190000D02*
X182800000Y-110350000D01*
X166725000Y-109541316D02*
X169855816Y-106410500D01*
X169855816Y-106410500D02*
X181020500Y-106410500D01*
X181020500Y-106410500D02*
X182800000Y-108190000D01*
%TO.N,fifth_top*%
X169855816Y-88660500D02*
X181020500Y-88660500D01*
X166725000Y-94500000D02*
X166725000Y-91791316D01*
X166725000Y-91791316D02*
X169855816Y-88660500D01*
X182800000Y-92600000D02*
X182800000Y-90440000D01*
X181020500Y-88660500D02*
X182800000Y-90440000D01*
%TO.N,fifth_num*%
X179990000Y-75500000D02*
X182800000Y-72690000D01*
X182800000Y-74850000D02*
X182800000Y-72690000D01*
X166725000Y-76750000D02*
X168600000Y-74875000D01*
X168600000Y-74875000D02*
X173920001Y-74875000D01*
X173920001Y-74875000D02*
X174545001Y-75500000D01*
X174545001Y-75500000D02*
X179990000Y-75500000D01*
%TO.N,P017*%
X197000000Y-76295001D02*
X197000000Y-77000000D01*
X201916658Y-104500000D02*
X200500000Y-104500000D01*
X203000000Y-138500000D02*
X203000000Y-116833342D01*
X197000000Y-99675000D02*
X197000000Y-85998895D01*
X198562500Y-115912500D02*
X197025000Y-117450000D01*
X197000000Y-84241105D02*
X197000000Y-81975000D01*
X197025000Y-135200000D02*
X200325000Y-138500000D01*
X202764000Y-155524000D02*
X202827500Y-155460500D01*
X203000000Y-116833342D02*
X202079158Y-115912500D01*
X199599000Y-155524000D02*
X202764000Y-155524000D01*
X194615499Y-73910500D02*
X197000000Y-76295001D01*
X197025000Y-99700000D02*
X197000000Y-99675000D01*
X197025000Y-152950000D02*
X199599000Y-155524000D01*
X202079158Y-115912500D02*
X198562500Y-115912500D01*
X198562500Y-115912500D02*
X201625500Y-115912500D01*
X203000000Y-114538000D02*
X203000000Y-105583342D01*
X203000000Y-105583342D02*
X201916658Y-104500000D01*
X188560000Y-69880000D02*
X192590500Y-73910500D01*
X197381300Y-85617595D02*
X197381300Y-84622405D01*
X197025000Y-101025000D02*
X197025000Y-99700000D01*
X200325000Y-138500000D02*
X203000000Y-138500000D01*
X197025000Y-79525000D02*
X197000000Y-79500000D01*
X197381300Y-84622405D02*
X197000000Y-84241105D01*
X200500000Y-104500000D02*
X197025000Y-101025000D01*
X202827500Y-155460500D02*
X202827500Y-141002500D01*
X201625500Y-115912500D02*
X203000000Y-114538000D01*
X197000000Y-81975000D02*
X197025000Y-81950000D01*
X202827500Y-141002500D02*
X197025000Y-135200000D01*
X197000000Y-85998895D02*
X197381300Y-85617595D01*
X192590500Y-73910500D02*
X194615499Y-73910500D01*
X197025000Y-81950000D02*
X197025000Y-79525000D01*
%TO.N,sixth_mod*%
X199770500Y-144910500D02*
X201550000Y-146690000D01*
X185475000Y-148025000D02*
X188589500Y-144910500D01*
X188589500Y-144910500D02*
X199770500Y-144910500D01*
X185475000Y-150750000D02*
X185475000Y-148025000D01*
X201550000Y-148850000D02*
X201550000Y-146690000D01*
%TO.N,sixth_bottom*%
X188605816Y-127160500D02*
X199770500Y-127160500D01*
X185475000Y-130291316D02*
X188605816Y-127160500D01*
X185475000Y-133000000D02*
X185475000Y-130291316D01*
X199770500Y-127160500D02*
X201550000Y-128940000D01*
X201550000Y-131100000D02*
X201550000Y-128940000D01*
%TO.N,sixth_home*%
X189550000Y-119325000D02*
X199415000Y-119325000D01*
X199415000Y-119325000D02*
X201550000Y-117190000D01*
X185475000Y-115250000D02*
X189550000Y-119325000D01*
X201550000Y-119350000D02*
X201550000Y-117190000D01*
%TO.N,sixth_top*%
X185475000Y-97500000D02*
X193915000Y-105940000D01*
X201550000Y-108100000D02*
X201550000Y-105940000D01*
X193915000Y-105940000D02*
X201550000Y-105940000D01*
%TO.N,sixth_num*%
X187350000Y-77875000D02*
X192670001Y-77875000D01*
X192670001Y-77875000D02*
X193295001Y-78500000D01*
X185475000Y-79750000D02*
X187350000Y-77875000D01*
X193295001Y-78500000D02*
X198740000Y-78500000D01*
X198740000Y-78500000D02*
X201550000Y-75690000D01*
X201550000Y-77850000D02*
X201550000Y-75690000D01*
%TO.N,P113*%
X186517595Y-83918700D02*
X179601300Y-83918700D01*
X179601300Y-83918700D02*
X178400000Y-85120000D01*
X187946300Y-86946300D02*
X187221300Y-86221300D01*
X187946300Y-87500000D02*
X187946300Y-86946300D01*
X145300000Y-148150000D02*
X145300000Y-150310000D01*
X164050000Y-146310000D02*
X164050000Y-144150000D01*
X187221300Y-86221300D02*
X187221300Y-84622405D01*
X107800000Y-155150000D02*
X107800000Y-157310000D01*
X182800000Y-149150000D02*
X182800000Y-151310000D01*
X187221300Y-84622405D02*
X186517595Y-83918700D01*
X201550000Y-152150000D02*
X201550000Y-154310000D01*
X126550000Y-155150000D02*
X126550000Y-157310000D01*
%TO.N,P002*%
X184500000Y-90500000D02*
X184500000Y-86140000D01*
X201550000Y-124810000D02*
X201550000Y-122650000D01*
X180000000Y-99300000D02*
X180000000Y-96000000D01*
X184000000Y-93000000D02*
X184000000Y-91000000D01*
X126550000Y-121810000D02*
X126550000Y-119650000D01*
X182800000Y-113650000D02*
X182800000Y-115810000D01*
X184500000Y-86140000D02*
X183480000Y-85120000D01*
X184000000Y-91000000D02*
X184500000Y-90500000D01*
X180000000Y-96000000D02*
X182000000Y-94000000D01*
X145300000Y-105650000D02*
X145300000Y-107810000D01*
X183000000Y-94000000D02*
X184000000Y-93000000D01*
X182000000Y-94000000D02*
X183000000Y-94000000D01*
X107800000Y-119650000D02*
X107800000Y-121810000D01*
X164050000Y-109810000D02*
X164050000Y-107650000D01*
%TO.N,P029*%
X182800000Y-95900000D02*
X182800000Y-98060000D01*
X107800000Y-101900000D02*
X107800000Y-104060000D01*
X126550000Y-104060000D02*
X126550000Y-101900000D01*
X164050000Y-93060000D02*
X164050000Y-90900000D01*
X145300000Y-94900000D02*
X145300000Y-97060000D01*
X201550000Y-113560000D02*
X201550000Y-111400000D01*
%TO.N,P115*%
X126550000Y-139560000D02*
X126550000Y-137400000D01*
X145300000Y-130400000D02*
X145300000Y-132560000D01*
X164050000Y-127560000D02*
X164050000Y-125400000D01*
X107800000Y-130400000D02*
X107800000Y-132560000D01*
X201550000Y-136560000D02*
X201550000Y-134400000D01*
X182800000Y-131400000D02*
X182800000Y-133560000D01*
%TO.N,P031*%
X126550000Y-86310000D02*
X126550000Y-84150000D01*
X107800000Y-77150000D02*
X107800000Y-79310000D01*
X164050000Y-74310000D02*
X164050000Y-72150000D01*
X201550000Y-83310000D02*
X201550000Y-81150000D01*
X182800000Y-80310000D02*
X182800000Y-78150000D01*
X145300000Y-77150000D02*
X145300000Y-79310000D01*
%TO.N,RAW*%
X200475000Y-99800000D02*
X197775000Y-97100000D01*
X197775000Y-97100000D02*
X197775000Y-86065000D01*
X197775000Y-86065000D02*
X198720000Y-85120000D01*
X200475000Y-100500000D02*
X200475000Y-99800000D01*
%TO.N,GND*%
X203600000Y-88100000D02*
X202500000Y-87000000D01*
X161000000Y-87000000D02*
X162500000Y-88500000D01*
X157298350Y-87000000D02*
X161000000Y-87000000D01*
X162500000Y-88500000D02*
X165500000Y-88500000D01*
X186735291Y-83500000D02*
X192648350Y-83500000D01*
X179383604Y-83500000D02*
X179414904Y-83468700D01*
X203375000Y-88550000D02*
X203375000Y-93350000D01*
X149250000Y-95048350D02*
X157298350Y-87000000D01*
X192648350Y-83500000D02*
X192973350Y-83825000D01*
X186703991Y-83468700D02*
X186735291Y-83500000D01*
X179414904Y-83468700D02*
X186703991Y-83468700D01*
X149250000Y-96000000D02*
X149250000Y-95048350D01*
X194705825Y-83645825D02*
X196180000Y-85120000D01*
X194526650Y-83825000D02*
X194705825Y-83645825D01*
X202500000Y-87000000D02*
X198500000Y-87000000D01*
X203600000Y-88325000D02*
X203600000Y-88100000D01*
X203375000Y-93350000D02*
X203600000Y-93575000D01*
X165500000Y-88500000D02*
X170500000Y-83500000D01*
X203600000Y-88325000D02*
X203375000Y-88550000D01*
X192973350Y-83825000D02*
X194526650Y-83825000D01*
X170500000Y-83500000D02*
X179383604Y-83500000D01*
%TO.N,RST*%
X201900000Y-88325000D02*
X198675000Y-88325000D01*
X202125000Y-88550000D02*
X202125000Y-93350000D01*
X201900000Y-88325000D02*
X202125000Y-88550000D01*
X198675000Y-88325000D02*
X198500000Y-88500000D01*
X202125000Y-93350000D02*
X201900000Y-93575000D01*
%TO.N,pos*%
X181000000Y-96000000D02*
X181000000Y-99500000D01*
X200475000Y-97500000D02*
X200000000Y-97500000D01*
X180475000Y-100025000D02*
X170025000Y-100025000D01*
X188901650Y-95000000D02*
X182000000Y-95000000D01*
X168000000Y-98000000D02*
X149250000Y-98000000D01*
X182000000Y-95000000D02*
X181000000Y-96000000D01*
X195500000Y-96500000D02*
X190401650Y-96500000D01*
X190401650Y-96500000D02*
X188901650Y-95000000D01*
X181000000Y-99500000D02*
X180475000Y-100025000D01*
X170025000Y-100025000D02*
X168000000Y-98000000D01*
X200000000Y-97500000D02*
X199000000Y-96500000D01*
%TD*%
M02*
