%TF.GenerationSoftware,KiCad,Pcbnew,9.0.8*%
%TF.CreationDate,2026-03-28T13:13:30+01:00*%
%TF.ProjectId,finished_right,66696e69-7368-4656-945f-72696768742e,v1.0.0*%
%TF.SameCoordinates,Original*%
%TF.FileFunction,Copper,L2,Bot*%
%TF.FilePolarity,Positive*%
%FSLAX46Y46*%
G04 Gerber Fmt 4.6, Leading zero omitted, Abs format (unit mm)*
G04 Created by KiCad (PCBNEW 9.0.8) date 2026-03-28 13:13:30*
%MOMM*%
%LPD*%
G01*
G04 APERTURE LIST*
%TA.AperFunction,SMDPad,CuDef*%
%ADD10R,0.900000X0.900000*%
%TD*%
%TA.AperFunction,WasherPad*%
%ADD11C,1.000000*%
%TD*%
%TA.AperFunction,SMDPad,CuDef*%
%ADD12R,1.250000X0.900000*%
%TD*%
%TA.AperFunction,ComponentPad*%
%ADD13R,1.778000X1.778000*%
%TD*%
%TA.AperFunction,SMDPad,CuDef*%
%ADD14R,1.200000X0.900000*%
%TD*%
%TA.AperFunction,ComponentPad*%
%ADD15C,1.905000*%
%TD*%
%TA.AperFunction,SMDPad,CuDef*%
%ADD16R,2.600000X2.600000*%
%TD*%
%TA.AperFunction,SMDPad,CuDef*%
%ADD17R,1.000000X1.550000*%
%TD*%
%TA.AperFunction,ComponentPad*%
%ADD18R,1.700000X1.200000*%
%TD*%
%TA.AperFunction,ComponentPad*%
%ADD19O,1.700000X1.200000*%
%TD*%
%TA.AperFunction,ComponentPad*%
%ADD20C,1.752600*%
%TD*%
%TA.AperFunction,ViaPad*%
%ADD21C,0.800000*%
%TD*%
%TA.AperFunction,Conductor*%
%ADD22C,0.250000*%
%TD*%
G04 APERTURE END LIST*
D10*
%TO.P,T1,*%
%TO.N,*%
X243850000Y-109450000D03*
X246050000Y-109450000D03*
D11*
X244950000Y-107250000D03*
X244950000Y-104250000D03*
D10*
X243850000Y-102050000D03*
X246050000Y-102050000D03*
D12*
%TO.P,T1,1*%
%TO.N,pos*%
X247025000Y-108000000D03*
%TO.P,T1,2*%
%TO.N,RAW*%
X247025000Y-105000000D03*
%TO.P,T1,3*%
%TO.N,N/C*%
X247025000Y-103500000D03*
%TD*%
D13*
%TO.P,D7,1*%
%TO.N,P002*%
X336550000Y-114190000D03*
D14*
X336550000Y-116350000D03*
%TO.P,D7,2*%
%TO.N,mirror_second_home*%
X336550000Y-119650000D03*
D15*
X336550000Y-121810000D03*
%TD*%
D13*
%TO.P,D20,1*%
%TO.N,P029*%
X280300000Y-90440000D03*
D14*
X280300000Y-92600000D03*
%TO.P,D20,2*%
%TO.N,mirror_fifth_top*%
X280300000Y-95900000D03*
D15*
X280300000Y-98060000D03*
%TD*%
D16*
%TO.P,S27,1*%
%TO.N,P017*%
X257025000Y-135200000D03*
%TO.P,S27,2*%
%TO.N,mirror_sixth_bottom*%
X245475000Y-133000000D03*
%TD*%
D13*
%TO.P,D29,1*%
%TO.N,P031*%
X280300000Y-67190000D03*
D14*
X280300000Y-69350000D03*
%TO.P,D29,2*%
%TO.N,mirror_fifth_num*%
X280300000Y-72650000D03*
D15*
X280300000Y-74810000D03*
%TD*%
D17*
%TO.P,B1,1*%
%TO.N,GND*%
X243900000Y-93575000D03*
X243900000Y-88325000D03*
%TO.P,B1,2*%
%TO.N,RST*%
X245600000Y-93575000D03*
X245600000Y-88325000D03*
%TD*%
D13*
%TO.P,D5,1*%
%TO.N,P031*%
X355300000Y-78690000D03*
D14*
X355300000Y-80850000D03*
%TO.P,D5,2*%
%TO.N,mirror_first_num*%
X355300000Y-84150000D03*
D15*
X355300000Y-86310000D03*
%TD*%
D16*
%TO.P,S10,1*%
%TO.N,P022*%
X332025000Y-84950000D03*
%TO.P,S10,2*%
%TO.N,mirror_second_num*%
X320475000Y-82750000D03*
%TD*%
D13*
%TO.P,D13,1*%
%TO.N,P031*%
X317800000Y-71690000D03*
D14*
X317800000Y-73850000D03*
%TO.P,D13,2*%
%TO.N,mirror_third_num*%
X317800000Y-77150000D03*
D15*
X317800000Y-79310000D03*
%TD*%
D13*
%TO.P,D6,1*%
%TO.N,P113*%
X336550000Y-149690000D03*
D14*
X336550000Y-151850000D03*
%TO.P,D6,2*%
%TO.N,mirror_second_mod*%
X336550000Y-155150000D03*
D15*
X336550000Y-157310000D03*
%TD*%
D16*
%TO.P,S4,1*%
%TO.N,P020*%
X350775000Y-102700000D03*
%TO.P,S4,2*%
%TO.N,mirror_first_top*%
X339225000Y-100500000D03*
%TD*%
D13*
%TO.P,D25,1*%
%TO.N,P115*%
X336550000Y-126440000D03*
D14*
X336550000Y-128600000D03*
%TO.P,D25,2*%
%TO.N,mirror_second_bottom*%
X336550000Y-131900000D03*
D15*
X336550000Y-134060000D03*
%TD*%
D16*
%TO.P,S14,1*%
%TO.N,P024*%
X313275000Y-95700000D03*
%TO.P,S14,2*%
%TO.N,mirror_third_top*%
X301725000Y-93500000D03*
%TD*%
D13*
%TO.P,D8,1*%
%TO.N,P029*%
X336550000Y-96440000D03*
D14*
X336550000Y-98600000D03*
%TO.P,D8,2*%
%TO.N,mirror_second_top*%
X336550000Y-101900000D03*
D15*
X336550000Y-104060000D03*
%TD*%
D13*
%TO.P,D16,1*%
%TO.N,P029*%
X299050000Y-84440000D03*
D14*
X299050000Y-86600000D03*
%TO.P,D16,2*%
%TO.N,mirror_fourth_top*%
X299050000Y-89900000D03*
D15*
X299050000Y-92060000D03*
%TD*%
D16*
%TO.P,S26,1*%
%TO.N,P017*%
X257025000Y-152950000D03*
%TO.P,S26,2*%
%TO.N,mirror_sixth_mod*%
X245475000Y-150750000D03*
%TD*%
D13*
%TO.P,D18,1*%
%TO.N,P113*%
X280300000Y-143690000D03*
D14*
X280300000Y-145850000D03*
%TO.P,D18,2*%
%TO.N,mirror_fifth_mod*%
X280300000Y-149150000D03*
D15*
X280300000Y-151310000D03*
%TD*%
D13*
%TO.P,D4,1*%
%TO.N,P029*%
X355300000Y-96440000D03*
D14*
X355300000Y-98600000D03*
%TO.P,D4,2*%
%TO.N,mirror_first_top*%
X355300000Y-101900000D03*
D15*
X355300000Y-104060000D03*
%TD*%
D16*
%TO.P,S22,1*%
%TO.N,P011*%
X275775000Y-132200000D03*
%TO.P,S22,2*%
%TO.N,mirror_fifth_bottom*%
X264225000Y-130000000D03*
%TD*%
%TO.P,S20,1*%
%TO.N,P100*%
X294525000Y-72950000D03*
%TO.P,S20,2*%
%TO.N,mirror_fourth_num*%
X282975000Y-70750000D03*
%TD*%
D13*
%TO.P,D12,1*%
%TO.N,P029*%
X317800000Y-89440000D03*
D14*
X317800000Y-91600000D03*
%TO.P,D12,2*%
%TO.N,mirror_third_top*%
X317800000Y-94900000D03*
D15*
X317800000Y-97060000D03*
%TD*%
D16*
%TO.P,S28,1*%
%TO.N,P017*%
X257025000Y-117450000D03*
%TO.P,S28,2*%
%TO.N,mirror_sixth_home*%
X245475000Y-115250000D03*
%TD*%
D18*
%TO.P,JST1,1*%
%TO.N,pos*%
X295250000Y-95500000D03*
D19*
%TO.P,JST1,2*%
%TO.N,GND*%
X295250000Y-97500000D03*
%TD*%
D13*
%TO.P,D19,1*%
%TO.N,P002*%
X280300000Y-108190000D03*
D14*
X280300000Y-110350000D03*
%TO.P,D19,2*%
%TO.N,mirror_fifth_home*%
X280300000Y-113650000D03*
D15*
X280300000Y-115810000D03*
%TD*%
D13*
%TO.P,D3,1*%
%TO.N,P002*%
X355300000Y-114190000D03*
D14*
X355300000Y-116350000D03*
%TO.P,D3,2*%
%TO.N,mirror_first_home*%
X355300000Y-119650000D03*
D15*
X355300000Y-121810000D03*
%TD*%
D16*
%TO.P,S1,1*%
%TO.N,P020*%
X350775000Y-155950000D03*
%TO.P,S1,2*%
%TO.N,mirror_first_mod*%
X339225000Y-153750000D03*
%TD*%
D13*
%TO.P,D23,1*%
%TO.N,P002*%
X261550000Y-111190000D03*
D14*
X261550000Y-113350000D03*
%TO.P,D23,2*%
%TO.N,mirror_sixth_home*%
X261550000Y-116650000D03*
D15*
X261550000Y-118810000D03*
%TD*%
D16*
%TO.P,S12,1*%
%TO.N,P024*%
X313275000Y-131200000D03*
%TO.P,S12,2*%
%TO.N,mirror_third_bottom*%
X301725000Y-129000000D03*
%TD*%
%TO.P,S3,1*%
%TO.N,P020*%
X350775000Y-120450000D03*
%TO.P,S3,2*%
%TO.N,mirror_first_home*%
X339225000Y-118250000D03*
%TD*%
%TO.P,S23,1*%
%TO.N,P011*%
X275775000Y-114450000D03*
%TO.P,S23,2*%
%TO.N,mirror_fifth_home*%
X264225000Y-112250000D03*
%TD*%
D13*
%TO.P,D1,1*%
%TO.N,P113*%
X355300000Y-149690000D03*
D14*
X355300000Y-151850000D03*
%TO.P,D1,2*%
%TO.N,mirror_first_mod*%
X355300000Y-155150000D03*
D15*
X355300000Y-157310000D03*
%TD*%
D13*
%TO.P,D30,1*%
%TO.N,P031*%
X261550000Y-73190000D03*
D14*
X261550000Y-75350000D03*
%TO.P,D30,2*%
%TO.N,mirror_sixth_num*%
X261550000Y-78650000D03*
D15*
X261550000Y-80810000D03*
%TD*%
D13*
%TO.P,D15,1*%
%TO.N,P115*%
X299050000Y-119940000D03*
D14*
X299050000Y-122100000D03*
%TO.P,D15,2*%
%TO.N,mirror_fourth_bottom*%
X299050000Y-125400000D03*
D15*
X299050000Y-127560000D03*
%TD*%
D13*
%TO.P,D17,1*%
%TO.N,P031*%
X299050000Y-66690000D03*
D14*
X299050000Y-68850000D03*
%TO.P,D17,2*%
%TO.N,mirror_fourth_num*%
X299050000Y-72150000D03*
D15*
X299050000Y-74310000D03*
%TD*%
D16*
%TO.P,S11,1*%
%TO.N,P024*%
X313275000Y-148950000D03*
%TO.P,S11,2*%
%TO.N,mirror_third_mod*%
X301725000Y-146750000D03*
%TD*%
D20*
%TO.P,MCU1,1*%
%TO.N,P006*%
X248780000Y-85120000D03*
%TO.P,MCU1,2*%
%TO.N,P008*%
X251320000Y-85120000D03*
%TO.P,MCU1,3*%
%TO.N,GND*%
X253860000Y-85120000D03*
%TO.P,MCU1,4*%
X256400000Y-85120000D03*
%TO.P,MCU1,5*%
%TO.N,P017*%
X258940000Y-85120000D03*
%TO.P,MCU1,6*%
%TO.N,P020*%
X261480000Y-85120000D03*
%TO.P,MCU1,7*%
%TO.N,P022*%
X264020000Y-85120000D03*
%TO.P,MCU1,8*%
%TO.N,P024*%
X266560000Y-85120000D03*
%TO.P,MCU1,9*%
%TO.N,P100*%
X269100000Y-85120000D03*
%TO.P,MCU1,10*%
%TO.N,P011*%
X271640000Y-85120000D03*
%TO.P,MCU1,11*%
%TO.N,P104*%
X274180000Y-85120000D03*
%TO.P,MCU1,12*%
%TO.N,P106*%
X276720000Y-85120000D03*
%TO.P,MCU1,13*%
%TO.N,P009*%
X276720000Y-69880000D03*
%TO.P,MCU1,14*%
%TO.N,P010*%
X274180000Y-69880000D03*
%TO.P,MCU1,15*%
%TO.N,P111*%
X271640000Y-69880000D03*
%TO.P,MCU1,16*%
%TO.N,P113*%
X269100000Y-69880000D03*
%TO.P,MCU1,17*%
%TO.N,P115*%
X266560000Y-69880000D03*
%TO.P,MCU1,18*%
%TO.N,P002*%
X264020000Y-69880000D03*
%TO.P,MCU1,19*%
%TO.N,P029*%
X261480000Y-69880000D03*
%TO.P,MCU1,20*%
%TO.N,P031*%
X258940000Y-69880000D03*
%TO.P,MCU1,21*%
%TO.N,VCC*%
X256400000Y-69880000D03*
%TO.P,MCU1,22*%
%TO.N,RST*%
X253860000Y-69880000D03*
%TO.P,MCU1,23*%
%TO.N,GND*%
X251320000Y-69880000D03*
%TO.P,MCU1,24*%
%TO.N,RAW*%
X248780000Y-69880000D03*
%TD*%
D16*
%TO.P,S15,1*%
%TO.N,P024*%
X313275000Y-77950000D03*
%TO.P,S15,2*%
%TO.N,mirror_third_num*%
X301725000Y-75750000D03*
%TD*%
%TO.P,S7,1*%
%TO.N,P022*%
X332025000Y-138200000D03*
%TO.P,S7,2*%
%TO.N,mirror_second_bottom*%
X320475000Y-136000000D03*
%TD*%
%TO.P,S24,1*%
%TO.N,P011*%
X275775000Y-96700000D03*
%TO.P,S24,2*%
%TO.N,mirror_fifth_top*%
X264225000Y-94500000D03*
%TD*%
%TO.P,S8,1*%
%TO.N,P022*%
X332025000Y-120450000D03*
%TO.P,S8,2*%
%TO.N,mirror_second_home*%
X320475000Y-118250000D03*
%TD*%
%TO.P,S21,1*%
%TO.N,P011*%
X275775000Y-149950000D03*
%TO.P,S21,2*%
%TO.N,mirror_fifth_mod*%
X264225000Y-147750000D03*
%TD*%
D13*
%TO.P,D2,1*%
%TO.N,P115*%
X355300000Y-131940000D03*
D14*
X355300000Y-134100000D03*
%TO.P,D2,2*%
%TO.N,mirror_first_bottom*%
X355300000Y-137400000D03*
D15*
X355300000Y-139560000D03*
%TD*%
D13*
%TO.P,D11,1*%
%TO.N,P002*%
X317800000Y-107190000D03*
D14*
X317800000Y-109350000D03*
%TO.P,D11,2*%
%TO.N,mirror_third_home*%
X317800000Y-112650000D03*
D15*
X317800000Y-114810000D03*
%TD*%
D16*
%TO.P,S13,1*%
%TO.N,P024*%
X313275000Y-113450000D03*
%TO.P,S13,2*%
%TO.N,mirror_third_home*%
X301725000Y-111250000D03*
%TD*%
%TO.P,S18,1*%
%TO.N,P100*%
X294525000Y-108450000D03*
%TO.P,S18,2*%
%TO.N,mirror_fourth_home*%
X282975000Y-106250000D03*
%TD*%
%TO.P,S19,1*%
%TO.N,P100*%
X294525000Y-90700000D03*
%TO.P,S19,2*%
%TO.N,mirror_fourth_top*%
X282975000Y-88500000D03*
%TD*%
%TO.P,S16,1*%
%TO.N,P100*%
X294525000Y-143950000D03*
%TO.P,S16,2*%
%TO.N,mirror_fourth_mod*%
X282975000Y-141750000D03*
%TD*%
D13*
%TO.P,D21,1*%
%TO.N,P113*%
X261550000Y-146690000D03*
D14*
X261550000Y-148850000D03*
%TO.P,D21,2*%
%TO.N,mirror_sixth_mod*%
X261550000Y-152150000D03*
D15*
X261550000Y-154310000D03*
%TD*%
D13*
%TO.P,D9,1*%
%TO.N,P113*%
X317800000Y-142690000D03*
D14*
X317800000Y-144850000D03*
%TO.P,D9,2*%
%TO.N,mirror_third_mod*%
X317800000Y-148150000D03*
D15*
X317800000Y-150310000D03*
%TD*%
D13*
%TO.P,D26,1*%
%TO.N,P031*%
X336550000Y-73190000D03*
D14*
X336550000Y-75350000D03*
%TO.P,D26,2*%
%TO.N,mirror_second_num*%
X336550000Y-78650000D03*
D15*
X336550000Y-80810000D03*
%TD*%
D13*
%TO.P,D28,1*%
%TO.N,P115*%
X280300000Y-120440000D03*
D14*
X280300000Y-122600000D03*
%TO.P,D28,2*%
%TO.N,mirror_fifth_bottom*%
X280300000Y-125900000D03*
D15*
X280300000Y-128060000D03*
%TD*%
D13*
%TO.P,D14,1*%
%TO.N,P113*%
X299050000Y-137690000D03*
D14*
X299050000Y-139850000D03*
%TO.P,D14,2*%
%TO.N,mirror_fourth_mod*%
X299050000Y-143150000D03*
D15*
X299050000Y-145310000D03*
%TD*%
D16*
%TO.P,S2,1*%
%TO.N,P020*%
X350775000Y-138200000D03*
%TO.P,S2,2*%
%TO.N,mirror_first_bottom*%
X339225000Y-136000000D03*
%TD*%
%TO.P,S30,1*%
%TO.N,P017*%
X257025000Y-81950000D03*
%TO.P,S30,2*%
%TO.N,mirror_sixth_num*%
X245475000Y-79750000D03*
%TD*%
%TO.P,S17,1*%
%TO.N,P100*%
X294525000Y-126200000D03*
%TO.P,S17,2*%
%TO.N,mirror_fourth_bottom*%
X282975000Y-124000000D03*
%TD*%
%TO.P,S25,1*%
%TO.N,P011*%
X275775000Y-78950000D03*
%TO.P,S25,2*%
%TO.N,mirror_fifth_num*%
X264225000Y-76750000D03*
%TD*%
%TO.P,S6,1*%
%TO.N,P022*%
X332025000Y-155950000D03*
%TO.P,S6,2*%
%TO.N,mirror_second_mod*%
X320475000Y-153750000D03*
%TD*%
%TO.P,S9,1*%
%TO.N,P022*%
X332025000Y-102700000D03*
%TO.P,S9,2*%
%TO.N,mirror_second_top*%
X320475000Y-100500000D03*
%TD*%
D13*
%TO.P,D22,1*%
%TO.N,P115*%
X261550000Y-128940000D03*
D14*
X261550000Y-131100000D03*
%TO.P,D22,2*%
%TO.N,mirror_sixth_bottom*%
X261550000Y-134400000D03*
D15*
X261550000Y-136560000D03*
%TD*%
D16*
%TO.P,S5,1*%
%TO.N,P020*%
X350775000Y-84950000D03*
%TO.P,S5,2*%
%TO.N,mirror_first_num*%
X339225000Y-82750000D03*
%TD*%
D13*
%TO.P,D10,1*%
%TO.N,P115*%
X317800000Y-124940000D03*
D14*
X317800000Y-127100000D03*
%TO.P,D10,2*%
%TO.N,mirror_third_bottom*%
X317800000Y-130400000D03*
D15*
X317800000Y-132560000D03*
%TD*%
D13*
%TO.P,D27,1*%
%TO.N,P002*%
X299050000Y-96690000D03*
D14*
X299050000Y-98850000D03*
%TO.P,D27,2*%
%TO.N,mirror_fourth_home*%
X299050000Y-102150000D03*
D15*
X299050000Y-104310000D03*
%TD*%
D16*
%TO.P,S29,1*%
%TO.N,P017*%
X257025000Y-99700000D03*
%TO.P,S29,2*%
%TO.N,mirror_sixth_top*%
X245475000Y-97500000D03*
%TD*%
D13*
%TO.P,D24,1*%
%TO.N,P029*%
X261550000Y-93440000D03*
D14*
X261550000Y-95600000D03*
%TO.P,D24,2*%
%TO.N,mirror_sixth_top*%
X261550000Y-98900000D03*
D15*
X261550000Y-101060000D03*
%TD*%
D21*
%TO.N,P022*%
X267000000Y-80000000D03*
X270500000Y-76500000D03*
%TO.N,P024*%
X292500000Y-80500000D03*
%TO.N,pos*%
X249500000Y-106500000D03*
X279000000Y-102000000D03*
%TO.N,P100*%
X294500000Y-141500000D03*
X294525000Y-137975000D03*
X294500000Y-123500000D03*
X294500000Y-123500000D03*
X294525000Y-119975000D03*
X290000000Y-88500000D03*
X288500000Y-86000000D03*
%TO.N,P002*%
X287522501Y-83977499D03*
X281000000Y-77500000D03*
%TO.N,P113*%
X269500000Y-66000000D03*
%TO.N,P115*%
X267000000Y-66000000D03*
%TO.N,RST*%
X247594753Y-88325000D03*
%TO.N,RAW*%
X251000000Y-100000000D03*
%TD*%
D22*
%TO.N,P022*%
X267000000Y-80000000D02*
X264020000Y-82980000D01*
X264020000Y-82980000D02*
X264020000Y-85120000D01*
X324526650Y-84625000D02*
X319036396Y-84625000D01*
X275500000Y-64500000D02*
X275500000Y-72954999D01*
X318329158Y-80587500D02*
X319077500Y-79839158D01*
X318329158Y-83917762D02*
X318329158Y-80587500D01*
X271910500Y-75089500D02*
X270500000Y-76500000D01*
X319036396Y-84625000D02*
X318329158Y-83917762D01*
X305786396Y-64500000D02*
X275500000Y-64500000D01*
X326076650Y-83075000D02*
X324526650Y-84625000D01*
X319077500Y-79839158D02*
X319077500Y-76727500D01*
X319077500Y-76727500D02*
X318725000Y-76375000D01*
X275500000Y-72954999D02*
X273365499Y-75089500D01*
X330150000Y-83075000D02*
X326076650Y-83075000D01*
X332025000Y-84950000D02*
X330150000Y-83075000D01*
X273365499Y-75089500D02*
X271910500Y-75089500D01*
X318725000Y-76375000D02*
X317661396Y-76375000D01*
X317661396Y-76375000D02*
X305786396Y-64500000D01*
%TO.N,mirror_fifth_num*%
X264225000Y-76750000D02*
X264250000Y-76750000D01*
X264250000Y-76750000D02*
X266500000Y-79000000D01*
X266500000Y-79000000D02*
X269161954Y-79000000D01*
X269161954Y-79000000D02*
X272524454Y-75637500D01*
X272524454Y-75637500D02*
X277312500Y-75637500D01*
X277312500Y-75637500D02*
X280300000Y-72650000D01*
%TO.N,P020*%
X262523329Y-79976671D02*
X262827500Y-80280842D01*
X355829158Y-87587500D02*
X356577500Y-86839158D01*
X267974695Y-64000000D02*
X262764000Y-69210695D01*
X312866450Y-64000000D02*
X267974695Y-64000000D01*
X320366450Y-71500000D02*
X312866450Y-64000000D01*
X356577500Y-77539500D02*
X350538000Y-71500000D01*
X262764000Y-74736000D02*
X262523329Y-74976671D01*
X262764000Y-69210695D02*
X262764000Y-74736000D01*
X356577500Y-86839158D02*
X356577500Y-77539500D01*
X350538000Y-71500000D02*
X320366450Y-71500000D01*
X262523329Y-74976671D02*
X262523329Y-79976671D01*
X353412500Y-87587500D02*
X355829158Y-87587500D01*
X350775000Y-84950000D02*
X353412500Y-87587500D01*
X262827500Y-80280842D02*
X262827500Y-83772500D01*
X262827500Y-83772500D02*
X261480000Y-85120000D01*
%TO.N,P024*%
X310725000Y-80500000D02*
X292500000Y-80500000D01*
X313275000Y-77950000D02*
X310725000Y-80500000D01*
%TO.N,pos*%
X249500000Y-106500000D02*
X248000000Y-108000000D01*
X248000000Y-108000000D02*
X247025000Y-108000000D01*
X285500000Y-95500000D02*
X279000000Y-102000000D01*
X295250000Y-95500000D02*
X285500000Y-95500000D01*
%TO.N,P020*%
X350775000Y-102700000D02*
X353412500Y-105337500D01*
X353412500Y-105337500D02*
X355829158Y-105337500D01*
X355829158Y-105337500D02*
X356577500Y-104589158D01*
X356577500Y-104589158D02*
X356577500Y-90752500D01*
X356577500Y-90752500D02*
X350775000Y-84950000D01*
X350775000Y-120450000D02*
X353412500Y-123087500D01*
X353412500Y-123087500D02*
X355829158Y-123087500D01*
X355829158Y-123087500D02*
X356577500Y-122339158D01*
X356577500Y-122339158D02*
X356577500Y-108502500D01*
X356577500Y-108502500D02*
X350775000Y-102700000D01*
X350775000Y-138200000D02*
X353412500Y-140837500D01*
X356577500Y-126252500D02*
X350775000Y-120450000D01*
X353412500Y-140837500D02*
X355829158Y-140837500D01*
X355829158Y-140837500D02*
X356577500Y-140089158D01*
X356577500Y-140089158D02*
X356577500Y-126252500D01*
X350775000Y-155950000D02*
X353412500Y-158587500D01*
X353412500Y-158587500D02*
X355829158Y-158587500D01*
X355829158Y-158587500D02*
X356577500Y-157839158D01*
X356577500Y-144002500D02*
X350775000Y-138200000D01*
X356577500Y-157839158D02*
X356577500Y-144002500D01*
%TO.N,P022*%
X332025000Y-102700000D02*
X334662500Y-105337500D01*
X334662500Y-105337500D02*
X337079158Y-105337500D01*
X337079158Y-105337500D02*
X337827500Y-104589158D01*
X337827500Y-104589158D02*
X337827500Y-103027500D01*
X337827500Y-103027500D02*
X337475000Y-102675000D01*
X332025000Y-96475000D02*
X332025000Y-84950000D01*
X337475000Y-102675000D02*
X337475000Y-101125000D01*
X336675000Y-101125000D02*
X332025000Y-96475000D01*
X337475000Y-101125000D02*
X336675000Y-101125000D01*
X332025000Y-120450000D02*
X334662500Y-123087500D01*
X337079158Y-123087500D02*
X337827500Y-122339158D01*
X334662500Y-123087500D02*
X337079158Y-123087500D01*
X336411396Y-118875000D02*
X332025000Y-114488604D01*
X337827500Y-122339158D02*
X337827500Y-120777500D01*
X337827500Y-120777500D02*
X337475000Y-120425000D01*
X337475000Y-120425000D02*
X337475000Y-118875000D01*
X337475000Y-118875000D02*
X336411396Y-118875000D01*
X332025000Y-114488604D02*
X332025000Y-102700000D01*
X332025000Y-138200000D02*
X328614500Y-134789500D01*
X328614500Y-134789500D02*
X327612150Y-134789500D01*
X327612150Y-134789500D02*
X324526650Y-137875000D01*
X324526650Y-137875000D02*
X319100000Y-137875000D01*
X319100000Y-137875000D02*
X318850000Y-137625000D01*
X318850000Y-137625000D02*
X318850000Y-134375000D01*
X318850000Y-134375000D02*
X332025000Y-121200000D01*
X332025000Y-121200000D02*
X332025000Y-120450000D01*
X332025000Y-155950000D02*
X334662500Y-158587500D01*
X337827500Y-156277500D02*
X337475000Y-155925000D01*
X334662500Y-158587500D02*
X337079158Y-158587500D01*
X337764000Y-150904000D02*
X337764000Y-143939000D01*
X337079158Y-158587500D02*
X337827500Y-157839158D01*
X337827500Y-157839158D02*
X337827500Y-156277500D01*
X337764000Y-143939000D02*
X332025000Y-138200000D01*
X337475000Y-155925000D02*
X337475000Y-151193000D01*
X337475000Y-151193000D02*
X337764000Y-150904000D01*
%TO.N,P024*%
X313275000Y-95700000D02*
X315912500Y-98337500D01*
X315912500Y-98337500D02*
X318329158Y-98337500D01*
X319077500Y-97589158D02*
X319077500Y-85302500D01*
X318329158Y-98337500D02*
X319077500Y-97589158D01*
X319077500Y-85302500D02*
X313275000Y-79500000D01*
X313275000Y-79500000D02*
X313275000Y-77950000D01*
X313275000Y-113450000D02*
X315912500Y-116087500D01*
X318329158Y-116087500D02*
X319077500Y-115339158D01*
X315912500Y-116087500D02*
X318329158Y-116087500D01*
X319077500Y-115339158D02*
X319077500Y-103052500D01*
X319077500Y-103052500D02*
X313275000Y-97250000D01*
X313275000Y-97250000D02*
X313275000Y-95700000D01*
X313275000Y-131200000D02*
X315912500Y-133837500D01*
X315912500Y-133837500D02*
X318329158Y-133837500D01*
X318329158Y-133837500D02*
X319077500Y-133089158D01*
X319077500Y-133089158D02*
X319077500Y-120802500D01*
X319077500Y-120802500D02*
X313275000Y-115000000D01*
X313275000Y-115000000D02*
X313275000Y-113450000D01*
X313275000Y-148950000D02*
X315912500Y-151587500D01*
X315912500Y-151587500D02*
X318329158Y-151587500D01*
X318329158Y-151587500D02*
X319077500Y-150839158D01*
X319077500Y-150839158D02*
X319077500Y-138552500D01*
X313275000Y-132750000D02*
X313275000Y-131200000D01*
X319077500Y-138552500D02*
X313275000Y-132750000D01*
%TO.N,P100*%
X294500000Y-141500000D02*
X294500000Y-143925000D01*
X294500000Y-143925000D02*
X294525000Y-143950000D01*
X294525000Y-137975000D02*
X294500000Y-138000000D01*
X294525000Y-126200000D02*
X294525000Y-137975000D01*
X294500000Y-123500000D02*
X294500000Y-124000000D01*
X294500000Y-124000000D02*
X294525000Y-124025000D01*
X294525000Y-124025000D02*
X294525000Y-126200000D01*
X294525000Y-119975000D02*
X294500000Y-120000000D01*
X294525000Y-108450000D02*
X294525000Y-119975000D01*
%TO.N,mirror_fourth_bottom*%
X282975000Y-124000000D02*
X284975000Y-122000000D01*
X284975000Y-122000000D02*
X287500000Y-122000000D01*
X296150000Y-122500000D02*
X299050000Y-125400000D01*
X287500000Y-122000000D02*
X288000000Y-122500000D01*
X288000000Y-122500000D02*
X296150000Y-122500000D01*
%TO.N,mirror_fourth_mod*%
X282975000Y-141750000D02*
X284850000Y-139875000D01*
X284850000Y-139875000D02*
X287375000Y-139875000D01*
X287375000Y-139875000D02*
X288000000Y-140500000D01*
X288000000Y-140500000D02*
X296400000Y-140500000D01*
X296400000Y-140500000D02*
X299050000Y-143150000D01*
%TO.N,P100*%
X294525000Y-90700000D02*
X296425000Y-92600000D01*
X296425000Y-92600000D02*
X296425000Y-97825000D01*
X296425000Y-97825000D02*
X300327500Y-101727500D01*
X300327500Y-101727500D02*
X300327500Y-104839158D01*
X300327500Y-104839158D02*
X296716658Y-108450000D01*
X296716658Y-108450000D02*
X294525000Y-108450000D01*
X290000000Y-88500000D02*
X292325000Y-88500000D01*
X292325000Y-88500000D02*
X294525000Y-90700000D01*
X288500000Y-79000000D02*
X288500000Y-86000000D01*
X294525000Y-72975000D02*
X288500000Y-79000000D01*
X294525000Y-72950000D02*
X294525000Y-72975000D01*
%TO.N,mirror_fourth_top*%
X282975000Y-88500000D02*
X284850000Y-86625000D01*
X284850000Y-86625000D02*
X287125000Y-86625000D01*
X287125000Y-86625000D02*
X288000000Y-87500000D01*
X288000000Y-87500000D02*
X296650000Y-87500000D01*
X296650000Y-87500000D02*
X299050000Y-89900000D01*
%TO.N,P100*%
X269100000Y-85120000D02*
X269100000Y-79698350D01*
X269100000Y-79698350D02*
X272710850Y-76087500D01*
X272710850Y-76087500D02*
X291387500Y-76087500D01*
X291387500Y-76087500D02*
X294525000Y-72950000D01*
%TO.N,P011*%
X271640000Y-85120000D02*
X271640000Y-83085000D01*
X271640000Y-83085000D02*
X275775000Y-78950000D01*
X275775000Y-96700000D02*
X278412500Y-99337500D01*
X278412500Y-99337500D02*
X280829158Y-99337500D01*
X280829158Y-99337500D02*
X281577500Y-98589158D01*
X281577500Y-98589158D02*
X281577500Y-95477500D01*
X281577500Y-95477500D02*
X280725000Y-94625000D01*
X280725000Y-94625000D02*
X280141316Y-94625000D01*
X280141316Y-94625000D02*
X271640000Y-86123684D01*
X271640000Y-86123684D02*
X271640000Y-85120000D01*
X275775000Y-114450000D02*
X278412500Y-117087500D01*
X281577500Y-113227500D02*
X281225000Y-112875000D01*
X278412500Y-117087500D02*
X280829158Y-117087500D01*
X280829158Y-117087500D02*
X281577500Y-116339158D01*
X281577500Y-116339158D02*
X281577500Y-113227500D01*
X275775000Y-108275000D02*
X275775000Y-96700000D01*
X281225000Y-112875000D02*
X280375000Y-112875000D01*
X280375000Y-112875000D02*
X275775000Y-108275000D01*
X275775000Y-132200000D02*
X277966658Y-132200000D01*
X281225000Y-125225000D02*
X275775000Y-119775000D01*
X275775000Y-119775000D02*
X275775000Y-114450000D01*
X277966658Y-132200000D02*
X281577500Y-128589158D01*
X281577500Y-128589158D02*
X281577500Y-127027500D01*
X281577500Y-127027500D02*
X281225000Y-126675000D01*
X281225000Y-126675000D02*
X281225000Y-125225000D01*
%TO.N,P002*%
X287522501Y-83977499D02*
X287045002Y-83500000D01*
X287045002Y-83500000D02*
X287000000Y-83500000D01*
X287000000Y-83500000D02*
X281000000Y-77500000D01*
%TO.N,P113*%
X269100000Y-66400000D02*
X269500000Y-66000000D01*
X269100000Y-69880000D02*
X269100000Y-66400000D01*
%TO.N,P115*%
X267000000Y-66000000D02*
X266560000Y-66440000D01*
X266560000Y-66440000D02*
X266560000Y-69880000D01*
%TO.N,GND*%
X243900000Y-88325000D02*
X243900000Y-88100000D01*
X243900000Y-88100000D02*
X244775000Y-87225000D01*
X244775000Y-87225000D02*
X251755000Y-87225000D01*
X251755000Y-87225000D02*
X253860000Y-85120000D01*
%TO.N,RST*%
X247594753Y-88325000D02*
X247596294Y-88323459D01*
X245600000Y-88325000D02*
X247594753Y-88325000D01*
%TO.N,RAW*%
X251000000Y-103500000D02*
X251000000Y-100000000D01*
X247025000Y-105000000D02*
X249500000Y-105000000D01*
X249500000Y-105000000D02*
X251000000Y-103500000D01*
%TO.N,mirror_fifth_top*%
X264225000Y-94500000D02*
X266100000Y-92625000D01*
X266100000Y-92625000D02*
X271125000Y-92625000D01*
X271125000Y-92625000D02*
X273575000Y-95075000D01*
X273575000Y-95075000D02*
X279475000Y-95075000D01*
X279475000Y-95075000D02*
X280300000Y-95900000D01*
%TO.N,mirror_fifth_home*%
X264225000Y-112250000D02*
X266100000Y-110375000D01*
X266100000Y-110375000D02*
X271420001Y-110375000D01*
X271420001Y-110375000D02*
X273870001Y-112825000D01*
X273870001Y-112825000D02*
X279475000Y-112825000D01*
X279475000Y-112825000D02*
X280300000Y-113650000D01*
%TO.N,mirror_fifth_bottom*%
X264225000Y-130000000D02*
X264225000Y-126775000D01*
X264225000Y-126775000D02*
X267000000Y-124000000D01*
X267000000Y-124000000D02*
X278400000Y-124000000D01*
X278400000Y-124000000D02*
X280300000Y-125900000D01*
%TO.N,mirror_fourth_num*%
X282975000Y-70750000D02*
X284850000Y-68875000D01*
X284850000Y-68875000D02*
X290170001Y-68875000D01*
X290170001Y-68875000D02*
X292620001Y-71325000D01*
X292620001Y-71325000D02*
X298225000Y-71325000D01*
X298225000Y-71325000D02*
X299050000Y-72150000D01*
%TO.N,mirror_fourth_home*%
X282975000Y-106250000D02*
X285122500Y-104102500D01*
X285122500Y-104102500D02*
X289897501Y-104102500D01*
X289897501Y-104102500D02*
X290384501Y-104589500D01*
X290384501Y-104589500D02*
X296610500Y-104589500D01*
X296610500Y-104589500D02*
X299050000Y-102150000D01*
%TO.N,mirror_third_num*%
X301725000Y-75750000D02*
X303600000Y-73875000D01*
X311370001Y-76325000D02*
X316975000Y-76325000D01*
X303600000Y-73875000D02*
X308920001Y-73875000D01*
X308920001Y-73875000D02*
X311370001Y-76325000D01*
X316975000Y-76325000D02*
X317800000Y-77150000D01*
%TO.N,mirror_third_top*%
X301725000Y-93500000D02*
X303622500Y-91602500D01*
X303622500Y-91602500D02*
X308897501Y-91602500D01*
X308897501Y-91602500D02*
X311370001Y-94075000D01*
X316975000Y-94075000D02*
X317800000Y-94900000D01*
X311370001Y-94075000D02*
X316975000Y-94075000D01*
%TO.N,mirror_third_home*%
X301725000Y-111250000D02*
X304249100Y-108725900D01*
X304249100Y-108725900D02*
X308270901Y-108725900D01*
X308270901Y-108725900D02*
X311370001Y-111825000D01*
X311370001Y-111825000D02*
X316975000Y-111825000D01*
X316975000Y-111825000D02*
X317800000Y-112650000D01*
%TO.N,mirror_third_bottom*%
X301725000Y-129000000D02*
X303600000Y-127125000D01*
X311075000Y-129575000D02*
X316975000Y-129575000D01*
X303600000Y-127125000D02*
X308625000Y-127125000D01*
X308625000Y-127125000D02*
X311075000Y-129575000D01*
X316975000Y-129575000D02*
X317800000Y-130400000D01*
%TO.N,mirror_third_mod*%
X301725000Y-146750000D02*
X303600000Y-144875000D01*
X303600000Y-144875000D02*
X308375000Y-144875000D01*
X308375000Y-144875000D02*
X310575000Y-147075000D01*
X310575000Y-147075000D02*
X316725000Y-147075000D01*
X316725000Y-147075000D02*
X317800000Y-148150000D01*
%TO.N,mirror_second_mod*%
X320475000Y-153750000D02*
X322350000Y-151875000D01*
X322350000Y-151875000D02*
X327775000Y-151875000D01*
X327775000Y-151875000D02*
X330225000Y-154325000D01*
X330225000Y-154325000D02*
X335725000Y-154325000D01*
X335725000Y-154325000D02*
X336550000Y-155150000D01*
%TO.N,mirror_second_bottom*%
X320475000Y-136000000D02*
X322475000Y-134000000D01*
X322475000Y-134000000D02*
X327545001Y-134000000D01*
X327884501Y-134339500D02*
X334110500Y-134339500D01*
X327545001Y-134000000D02*
X327884501Y-134339500D01*
X334110500Y-134339500D02*
X336550000Y-131900000D01*
%TO.N,mirror_second_home*%
X320475000Y-118250000D02*
X322350000Y-116375000D01*
X322350000Y-116375000D02*
X325875000Y-116375000D01*
X325875000Y-116375000D02*
X328075000Y-118575000D01*
X328075000Y-118575000D02*
X335475000Y-118575000D01*
X335475000Y-118575000D02*
X336550000Y-119650000D01*
%TO.N,mirror_second_top*%
X320475000Y-100500000D02*
X322350000Y-98625000D01*
X322350000Y-98625000D02*
X327670001Y-98625000D01*
X327670001Y-98625000D02*
X330120001Y-101075000D01*
X330120001Y-101075000D02*
X335725000Y-101075000D01*
X335725000Y-101075000D02*
X336550000Y-101900000D01*
%TO.N,mirror_second_num*%
X320475000Y-82750000D02*
X322350000Y-80875000D01*
X322350000Y-80875000D02*
X327670001Y-80875000D01*
X327884501Y-81089500D02*
X334110500Y-81089500D01*
X327670001Y-80875000D02*
X327884501Y-81089500D01*
X334110500Y-81089500D02*
X336550000Y-78650000D01*
%TO.N,mirror_first_num*%
X339225000Y-82750000D02*
X341100000Y-80875000D01*
X341100000Y-80875000D02*
X346375000Y-80875000D01*
X346375000Y-80875000D02*
X347545001Y-82045001D01*
X347545001Y-82045001D02*
X353195001Y-82045001D01*
X353195001Y-82045001D02*
X355300000Y-84150000D01*
%TO.N,mirror_first_top*%
X339225000Y-100500000D02*
X341100000Y-98625000D01*
X341100000Y-98625000D02*
X346420001Y-98625000D01*
X346420001Y-98625000D02*
X348870001Y-101075000D01*
X348870001Y-101075000D02*
X354475000Y-101075000D01*
X354475000Y-101075000D02*
X355300000Y-101900000D01*
%TO.N,mirror_first_home*%
X339225000Y-118250000D02*
X341100000Y-116375000D01*
X341100000Y-116375000D02*
X346420001Y-116375000D01*
X346420001Y-116375000D02*
X348870001Y-118825000D01*
X348870001Y-118825000D02*
X354475000Y-118825000D01*
X354475000Y-118825000D02*
X355300000Y-119650000D01*
%TO.N,mirror_first_bottom*%
X339225000Y-136000000D02*
X341100000Y-134125000D01*
X341100000Y-134125000D02*
X346076650Y-134125000D01*
X348451650Y-136500000D02*
X354400000Y-136500000D01*
X346076650Y-134125000D02*
X348451650Y-136500000D01*
X354400000Y-136500000D02*
X355300000Y-137400000D01*
%TO.N,mirror_first_mod*%
X339225000Y-153750000D02*
X341100000Y-151875000D01*
X346420001Y-151875000D02*
X348870001Y-154325000D01*
X341100000Y-151875000D02*
X346420001Y-151875000D01*
X348870001Y-154325000D02*
X354475000Y-154325000D01*
X354475000Y-154325000D02*
X355300000Y-155150000D01*
X355300000Y-155150000D02*
X355300000Y-157310000D01*
%TO.N,mirror_second_mod*%
X336550000Y-155150000D02*
X336550000Y-157310000D01*
%TO.N,P113*%
X355300000Y-149690000D02*
X355300000Y-151850000D01*
X336550000Y-149690000D02*
X336550000Y-151850000D01*
%TO.N,mirror_second_bottom*%
X336550000Y-131900000D02*
X336550000Y-134060000D01*
%TO.N,mirror_first_bottom*%
X355300000Y-137400000D02*
X355300000Y-139560000D01*
%TO.N,P115*%
X355300000Y-131940000D02*
X355300000Y-134100000D01*
X336550000Y-126440000D02*
X336550000Y-128600000D01*
%TO.N,mirror_second_home*%
X336550000Y-119650000D02*
X336550000Y-121810000D01*
%TO.N,mirror_first_home*%
X355300000Y-119650000D02*
X355300000Y-121810000D01*
%TO.N,P002*%
X355300000Y-114190000D02*
X355300000Y-116350000D01*
X336550000Y-114190000D02*
X336550000Y-116350000D01*
%TO.N,mirror_second_top*%
X336550000Y-101900000D02*
X336550000Y-104060000D01*
%TO.N,mirror_first_top*%
X355300000Y-101900000D02*
X355300000Y-104060000D01*
%TO.N,P029*%
X355300000Y-96440000D02*
X355300000Y-98600000D01*
X336550000Y-96440000D02*
X336550000Y-98600000D01*
%TO.N,mirror_first_num*%
X355300000Y-84150000D02*
X355300000Y-86310000D01*
%TO.N,P031*%
X355300000Y-78690000D02*
X355300000Y-80850000D01*
%TO.N,mirror_second_num*%
X336550000Y-78650000D02*
X336550000Y-80810000D01*
%TO.N,P031*%
X336550000Y-73190000D02*
X336550000Y-75350000D01*
%TO.N,mirror_third_num*%
X317800000Y-77150000D02*
X317800000Y-79310000D01*
%TO.N,P031*%
X317800000Y-71690000D02*
X317800000Y-73850000D01*
%TO.N,mirror_third_top*%
X317800000Y-94900000D02*
X317800000Y-97060000D01*
%TO.N,P029*%
X317800000Y-89440000D02*
X317800000Y-91600000D01*
%TO.N,mirror_third_home*%
X317800000Y-112650000D02*
X317800000Y-114810000D01*
%TO.N,P002*%
X317800000Y-107190000D02*
X317800000Y-109350000D01*
%TO.N,mirror_third_bottom*%
X317800000Y-130400000D02*
X317800000Y-132560000D01*
%TO.N,P115*%
X317800000Y-124940000D02*
X317800000Y-127100000D01*
%TO.N,mirror_third_mod*%
X317800000Y-148150000D02*
X317800000Y-150310000D01*
%TO.N,P113*%
X317800000Y-142690000D02*
X317800000Y-144850000D01*
%TO.N,mirror_fourth_mod*%
X299050000Y-143150000D02*
X299050000Y-145310000D01*
%TO.N,P113*%
X299050000Y-137690000D02*
X299050000Y-139850000D01*
%TO.N,mirror_fourth_bottom*%
X299050000Y-125400000D02*
X299050000Y-127560000D01*
%TO.N,P115*%
X299050000Y-119940000D02*
X299050000Y-122100000D01*
%TO.N,mirror_fourth_home*%
X299050000Y-102150000D02*
X299050000Y-104310000D01*
%TO.N,P002*%
X299050000Y-96690000D02*
X299050000Y-98850000D01*
%TO.N,mirror_fourth_top*%
X299050000Y-89900000D02*
X299050000Y-92060000D01*
%TO.N,P029*%
X299050000Y-85950000D02*
X299000000Y-86000000D01*
X299050000Y-84440000D02*
X299050000Y-85950000D01*
X299000000Y-86000000D02*
X299050000Y-86050000D01*
X299050000Y-86050000D02*
X299050000Y-86600000D01*
%TO.N,mirror_fourth_num*%
X299050000Y-72150000D02*
X299050000Y-74310000D01*
%TO.N,P031*%
X299050000Y-66690000D02*
X299050000Y-68850000D01*
X280300000Y-69350000D02*
X280300000Y-67190000D01*
%TO.N,mirror_fifth_num*%
X280300000Y-74810000D02*
X280300000Y-72650000D01*
%TO.N,P029*%
X280300000Y-92600000D02*
X280300000Y-90440000D01*
%TO.N,mirror_fifth_top*%
X280300000Y-98060000D02*
X280300000Y-95900000D01*
%TO.N,P002*%
X280300000Y-110350000D02*
X280300000Y-108190000D01*
%TO.N,mirror_fifth_home*%
X280300000Y-115810000D02*
X280300000Y-113650000D01*
%TO.N,P115*%
X280300000Y-122600000D02*
X280300000Y-120440000D01*
%TO.N,mirror_fifth_bottom*%
X280300000Y-128060000D02*
X280300000Y-125900000D01*
%TO.N,P011*%
X275775000Y-149950000D02*
X278412500Y-152587500D01*
X278412500Y-152587500D02*
X280829158Y-152587500D01*
X280829158Y-152587500D02*
X281577500Y-151839158D01*
X281577500Y-151839158D02*
X281577500Y-148577500D01*
X281577500Y-148577500D02*
X280500000Y-147500000D01*
X280500000Y-147500000D02*
X279500000Y-147500000D01*
X279500000Y-147500000D02*
X275775000Y-143775000D01*
X275775000Y-143775000D02*
X275775000Y-132200000D01*
%TO.N,P113*%
X280300000Y-145850000D02*
X280300000Y-143690000D01*
%TO.N,mirror_fifth_mod*%
X280300000Y-149150000D02*
X280300000Y-151310000D01*
X264225000Y-147750000D02*
X266100000Y-145875000D01*
X266100000Y-145875000D02*
X269875000Y-145875000D01*
X269875000Y-145875000D02*
X272075000Y-148075000D01*
X279225000Y-148075000D02*
X280300000Y-149150000D01*
X272075000Y-148075000D02*
X279225000Y-148075000D01*
%TO.N,GND*%
X243900000Y-93575000D02*
X244125000Y-93350000D01*
X244125000Y-93350000D02*
X244125000Y-88550000D01*
X244125000Y-88550000D02*
X243900000Y-88325000D01*
%TO.N,RST*%
X245600000Y-88325000D02*
X247000000Y-89725000D01*
X247000000Y-89725000D02*
X247000000Y-92175000D01*
X247000000Y-92175000D02*
X245600000Y-93575000D01*
%TO.N,mirror_sixth_num*%
X245475000Y-79750000D02*
X247350000Y-77875000D01*
X247350000Y-77875000D02*
X252670001Y-77875000D01*
X252670001Y-77875000D02*
X253445001Y-78650000D01*
X253445001Y-78650000D02*
X261550000Y-78650000D01*
X261550000Y-78650000D02*
X261550000Y-80810000D01*
%TO.N,P031*%
X261550000Y-73190000D02*
X261550000Y-75350000D01*
%TO.N,P017*%
X258940000Y-85120000D02*
X257025000Y-83205000D01*
X257025000Y-83205000D02*
X257025000Y-81950000D01*
X257025000Y-99700000D02*
X259662500Y-102337500D01*
X262079158Y-102337500D02*
X262827500Y-101589158D01*
X259662500Y-102337500D02*
X262079158Y-102337500D01*
X262827500Y-101589158D02*
X262827500Y-98577500D01*
X262827500Y-98577500D02*
X259225900Y-94975900D01*
X259225900Y-94975900D02*
X258742216Y-94975900D01*
X258742216Y-94975900D02*
X258024100Y-94257784D01*
X258024100Y-94257784D02*
X258024100Y-86035900D01*
X258024100Y-86035900D02*
X258940000Y-85120000D01*
%TO.N,mirror_sixth_top*%
X245475000Y-97500000D02*
X247475000Y-95500000D01*
X252545001Y-95500000D02*
X255120001Y-98075000D01*
X247475000Y-95500000D02*
X252545001Y-95500000D01*
X255120001Y-98075000D02*
X260725000Y-98075000D01*
X260725000Y-98075000D02*
X261550000Y-98900000D01*
%TO.N,P029*%
X261550000Y-95600000D02*
X261550000Y-93440000D01*
%TO.N,mirror_sixth_top*%
X261550000Y-101060000D02*
X261550000Y-98900000D01*
%TO.N,P017*%
X257025000Y-117450000D02*
X255150000Y-119325000D01*
X255150000Y-119325000D02*
X246300000Y-119325000D01*
X246300000Y-119325000D02*
X243500000Y-116525000D01*
X243500000Y-116525000D02*
X243500000Y-113975000D01*
X243500000Y-113975000D02*
X257025000Y-100450000D01*
X257025000Y-100450000D02*
X257025000Y-99700000D01*
%TO.N,mirror_sixth_home*%
X245475000Y-115250000D02*
X247350000Y-113375000D01*
X247350000Y-113375000D02*
X252670001Y-113375000D01*
X252670001Y-113375000D02*
X255120001Y-115825000D01*
X255120001Y-115825000D02*
X260725000Y-115825000D01*
X260725000Y-115825000D02*
X261550000Y-116650000D01*
%TO.N,P002*%
X261550000Y-113350000D02*
X261550000Y-111190000D01*
%TO.N,mirror_sixth_home*%
X261550000Y-118810000D02*
X261550000Y-116650000D01*
%TO.N,P017*%
X257025000Y-135200000D02*
X255150000Y-137075000D01*
X243500000Y-130975000D02*
X257025000Y-117450000D01*
X255150000Y-137075000D02*
X246300000Y-137075000D01*
X246300000Y-137075000D02*
X243500000Y-134275000D01*
X243500000Y-134275000D02*
X243500000Y-130975000D01*
%TO.N,mirror_sixth_bottom*%
X245475000Y-133000000D02*
X247350000Y-131125000D01*
X247350000Y-131125000D02*
X252670001Y-131125000D01*
X252670001Y-131125000D02*
X255120001Y-133575000D01*
X255120001Y-133575000D02*
X260725000Y-133575000D01*
X260725000Y-133575000D02*
X261550000Y-134400000D01*
%TO.N,P115*%
X261550000Y-131100000D02*
X261550000Y-128940000D01*
%TO.N,mirror_sixth_bottom*%
X261550000Y-136560000D02*
X261550000Y-134400000D01*
%TO.N,P017*%
X257025000Y-152950000D02*
X254387500Y-155587500D01*
X246087500Y-155587500D02*
X243850000Y-153350000D01*
X254387500Y-155587500D02*
X246087500Y-155587500D01*
X243850000Y-153350000D02*
X243850000Y-149150000D01*
X243850000Y-149150000D02*
X257025000Y-135975000D01*
X257025000Y-135975000D02*
X257025000Y-135200000D01*
%TO.N,P113*%
X261550000Y-148850000D02*
X261550000Y-146690000D01*
%TO.N,mirror_sixth_mod*%
X261550000Y-152150000D02*
X261550000Y-154310000D01*
X245475000Y-150750000D02*
X247350000Y-148875000D01*
X247350000Y-148875000D02*
X252670001Y-148875000D01*
X252670001Y-148875000D02*
X255120001Y-151325000D01*
X255120001Y-151325000D02*
X260725000Y-151325000D01*
X260725000Y-151325000D02*
X261550000Y-152150000D01*
%TD*%
M02*
