M48
; DRILL file {KiCad 9.0.8} date 2026-03-28T13:14:45+0100
; FORMAT={-:-/ absolute / metric / decimal}
; #@! TF.CreationDate,2026-03-28T13:14:45+01:00
; #@! TF.GenerationSoftware,Kicad,Pcbnew,9.0.8
; #@! TF.FileFunction,Plated,1,2,PTH
FMAT,2
METRIC
; #@! TA.AperFunction,Plated,PTH,ViaDrill
T1C0.400
; #@! TA.AperFunction,Plated,PTH,ComponentDrill
T2C0.750
; #@! TA.AperFunction,Plated,PTH,ComponentDrill
T3C0.991
; #@! TA.AperFunction,Plated,PTH,ComponentDrill
T4C1.092
%
G90
G05
T1
X159.5Y-103.0
X159.5Y-115.5
X159.5Y-120.5
X159.5Y-133.5
X159.5Y-138.5
X159.525Y-75.5
X159.525Y-88.0
X159.525Y-94.0
X178.0Y-76.5
X178.275Y-99.3
X178.5Y-82.0
X178.5Y-92.0
X178.5Y-109.0
X178.5Y-122.0
X178.5Y-127.0
X178.5Y-140.0
X178.5Y-145.0
X180.0Y-99.3
X187.946Y-87.5
X195.5Y-96.5
X197.0Y-77.0
X197.0Y-79.5
X198.5Y-87.0
X198.5Y-88.5
X199.0Y-96.5
T2
X149.25Y-96.0
X149.25Y-98.0
T3
X107.8Y-71.69
X107.8Y-79.31
X107.8Y-96.44
X107.8Y-104.06
X107.8Y-114.19
X107.8Y-121.81
X107.8Y-124.94
X107.8Y-132.56
X107.8Y-149.69
X107.8Y-157.31
X126.55Y-78.69
X126.55Y-86.31
X126.55Y-96.44
X126.55Y-104.06
X126.55Y-114.19
X126.55Y-121.81
X126.55Y-131.94
X126.55Y-139.56
X126.55Y-149.69
X126.55Y-157.31
X145.3Y-71.69
X145.3Y-79.31
X145.3Y-89.44
X145.3Y-97.06
X145.3Y-100.19
X145.3Y-107.81
X145.3Y-124.94
X145.3Y-132.56
X145.3Y-142.69
X145.3Y-150.31
X164.05Y-66.69
X164.05Y-74.31
X164.05Y-85.44
X164.05Y-93.06
X164.05Y-102.19
X164.05Y-109.81
X164.05Y-119.94
X164.05Y-127.56
X164.05Y-138.69
X164.05Y-146.31
X182.8Y-72.69
X182.8Y-80.31
X182.8Y-90.44
X182.8Y-98.06
X182.8Y-108.19
X182.8Y-115.81
X182.8Y-125.94
X182.8Y-133.56
X182.8Y-143.69
X182.8Y-151.31
X201.55Y-75.69
X201.55Y-83.31
X201.55Y-105.94
X201.55Y-113.56
X201.55Y-117.19
X201.55Y-124.81
X201.55Y-128.94
X201.55Y-136.56
X201.55Y-146.69
X201.55Y-154.31
T4
X170.78Y-69.88
X170.78Y-85.12
X173.32Y-69.88
X173.32Y-85.12
X175.86Y-69.88
X175.86Y-85.12
X178.4Y-69.88
X178.4Y-85.12
X180.94Y-69.88
X180.94Y-85.12
X183.48Y-69.88
X183.48Y-85.12
X186.02Y-69.88
X186.02Y-85.12
X188.56Y-69.88
X188.56Y-85.12
X191.1Y-69.88
X191.1Y-85.12
X193.64Y-69.88
X193.64Y-85.12
X196.18Y-69.88
X196.18Y-85.12
X198.72Y-69.88
X198.72Y-85.12
M30
