M48
; DRILL file {KiCad 9.0.8} date 2026-03-28T13:13:15+0100
; FORMAT={-:-/ absolute / metric / decimal}
; #@! TF.CreationDate,2026-03-28T13:13:15+01:00
; #@! TF.GenerationSoftware,Kicad,Pcbnew,9.0.8
; #@! TF.FileFunction,NonPlated,1,2,NPTH
FMAT,2
METRIC
; #@! TA.AperFunction,NonPlated,NPTH,ComponentDrill
T1C0.750
; #@! TA.AperFunction,NonPlated,NPTH,ComponentDrill
T2C0.900
; #@! TA.AperFunction,NonPlated,NPTH,ComponentDrill
T3C1.702
; #@! TA.AperFunction,NonPlated,NPTH,ComponentDrill
T4C3.000
; #@! TA.AperFunction,NonPlated,NPTH,ComponentDrill
T5C3.429
; #@! TA.AperFunction,NonPlated,NPTH,ComponentDrill
T6C4.000
%
G90
G05
T1
X243.375Y-90.95
X246.125Y-90.95
T2
X244.95Y-104.25
X244.95Y-107.25
T3
X248.25Y-76.0
X248.25Y-93.75
X248.25Y-111.5
X248.25Y-129.25
X248.25Y-147.0
X259.25Y-76.0
X259.25Y-93.75
X259.25Y-111.5
X259.25Y-129.25
X259.25Y-147.0
X267.0Y-73.0
X267.0Y-90.75
X267.0Y-108.5
X267.0Y-126.25
X267.0Y-144.0
X278.0Y-73.0
X278.0Y-90.75
X278.0Y-108.5
X278.0Y-126.25
X278.0Y-144.0
X285.75Y-67.0
X285.75Y-84.75
X285.75Y-102.5
X285.75Y-120.25
X285.75Y-138.0
X296.75Y-67.0
X296.75Y-84.75
X296.75Y-102.5
X296.75Y-120.25
X296.75Y-138.0
X304.5Y-72.0
X304.5Y-89.75
X304.5Y-107.5
X304.5Y-125.25
X304.5Y-143.0
X315.5Y-72.0
X315.5Y-89.75
X315.5Y-107.5
X315.5Y-125.25
X315.5Y-143.0
X323.25Y-79.0
X323.25Y-96.75
X323.25Y-114.5
X323.25Y-132.25
X323.25Y-150.0
X334.25Y-79.0
X334.25Y-96.75
X334.25Y-114.5
X334.25Y-132.25
X334.25Y-150.0
X342.0Y-79.0
X342.0Y-96.75
X342.0Y-114.5
X342.0Y-132.25
X342.0Y-150.0
X353.0Y-79.0
X353.0Y-96.75
X353.0Y-114.5
X353.0Y-132.25
X353.0Y-150.0
T4
X248.75Y-79.75
X248.75Y-97.5
X248.75Y-115.25
X248.75Y-133.0
X248.75Y-150.75
X253.75Y-81.95
X253.75Y-99.7
X253.75Y-117.45
X253.75Y-135.2
X253.75Y-152.95
X267.5Y-76.75
X267.5Y-94.5
X267.5Y-112.25
X267.5Y-130.0
X267.5Y-147.75
X272.5Y-78.95
X272.5Y-96.7
X272.5Y-114.45
X272.5Y-132.2
X272.5Y-149.95
X286.25Y-70.75
X286.25Y-88.5
X286.25Y-106.25
X286.25Y-124.0
X286.25Y-141.75
X291.25Y-72.95
X291.25Y-90.7
X291.25Y-108.45
X291.25Y-126.2
X291.25Y-143.95
X305.0Y-75.75
X305.0Y-93.5
X305.0Y-111.25
X305.0Y-129.0
X305.0Y-146.75
X310.0Y-77.95
X310.0Y-95.7
X310.0Y-113.45
X310.0Y-131.2
X310.0Y-148.95
X323.75Y-82.75
X323.75Y-100.5
X323.75Y-118.25
X323.75Y-136.0
X323.75Y-153.75
X328.75Y-84.95
X328.75Y-102.7
X328.75Y-120.45
X328.75Y-138.2
X328.75Y-155.95
X342.5Y-82.75
X342.5Y-100.5
X342.5Y-118.25
X342.5Y-136.0
X342.5Y-153.75
X347.5Y-84.95
X347.5Y-102.7
X347.5Y-120.45
X347.5Y-138.2
X347.5Y-155.95
T5
X253.75Y-76.0
X253.75Y-93.75
X253.75Y-111.5
X253.75Y-129.25
X253.75Y-147.0
X272.5Y-73.0
X272.5Y-90.75
X272.5Y-108.5
X272.5Y-126.25
X272.5Y-144.0
X291.25Y-67.0
X291.25Y-84.75
X291.25Y-102.5
X291.25Y-120.25
X291.25Y-138.0
X310.0Y-72.0
X310.0Y-89.75
X310.0Y-107.5
X310.0Y-125.25
X310.0Y-143.0
X328.75Y-79.0
X328.75Y-96.75
X328.75Y-114.5
X328.75Y-132.25
X328.75Y-150.0
X347.5Y-79.0
X347.5Y-96.75
X347.5Y-114.5
X347.5Y-132.25
X347.5Y-150.0
T6
X281.5Y-82.25
X281.5Y-135.5
X301.0Y-116.75
X337.75Y-87.5
X338.5Y-140.75
M30
