%TF.GenerationSoftware,KiCad,Pcbnew,9.0.8*%
%TF.CreationDate,2026-03-28T13:13:30+01:00*%
%TF.ProjectId,finished_right,66696e69-7368-4656-945f-72696768742e,v1.0.0*%
%TF.SameCoordinates,Original*%
%TF.FileFunction,Copper,L1,Top*%
%TF.FilePolarity,Positive*%
%FSLAX46Y46*%
G04 Gerber Fmt 4.6, Leading zero omitted, Abs format (unit mm)*
G04 Created by KiCad (PCBNEW 9.0.8) date 2026-03-28 13:13:30*
%MOMM*%
%LPD*%
G01*
G04 APERTURE LIST*
%TA.AperFunction,WasherPad*%
%ADD10C,1.000000*%
%TD*%
%TA.AperFunction,ComponentPad*%
%ADD11R,1.778000X1.778000*%
%TD*%
%TA.AperFunction,SMDPad,CuDef*%
%ADD12R,1.200000X0.900000*%
%TD*%
%TA.AperFunction,ComponentPad*%
%ADD13C,1.905000*%
%TD*%
%TA.AperFunction,ComponentPad*%
%ADD14R,1.700000X1.200000*%
%TD*%
%TA.AperFunction,ComponentPad*%
%ADD15O,1.700000X1.200000*%
%TD*%
%TA.AperFunction,ComponentPad*%
%ADD16C,1.752600*%
%TD*%
%TA.AperFunction,ViaPad*%
%ADD17C,0.800000*%
%TD*%
%TA.AperFunction,Conductor*%
%ADD18C,0.250000*%
%TD*%
G04 APERTURE END LIST*
D10*
%TO.P,T1,*%
%TO.N,*%
X244950000Y-107250000D03*
X244950000Y-104250000D03*
%TD*%
D11*
%TO.P,D7,1*%
%TO.N,P002*%
X336550000Y-114190000D03*
D12*
X336550000Y-116350000D03*
%TO.P,D7,2*%
%TO.N,mirror_second_home*%
X336550000Y-119650000D03*
D13*
X336550000Y-121810000D03*
%TD*%
D11*
%TO.P,D20,1*%
%TO.N,P029*%
X280300000Y-90440000D03*
D12*
X280300000Y-92600000D03*
%TO.P,D20,2*%
%TO.N,mirror_fifth_top*%
X280300000Y-95900000D03*
D13*
X280300000Y-98060000D03*
%TD*%
D11*
%TO.P,D29,1*%
%TO.N,P031*%
X280300000Y-67190000D03*
D12*
X280300000Y-69350000D03*
%TO.P,D29,2*%
%TO.N,mirror_fifth_num*%
X280300000Y-72650000D03*
D13*
X280300000Y-74810000D03*
%TD*%
D11*
%TO.P,D5,1*%
%TO.N,P031*%
X355300000Y-78690000D03*
D12*
X355300000Y-80850000D03*
%TO.P,D5,2*%
%TO.N,mirror_first_num*%
X355300000Y-84150000D03*
D13*
X355300000Y-86310000D03*
%TD*%
D11*
%TO.P,D13,1*%
%TO.N,P031*%
X317800000Y-71690000D03*
D12*
X317800000Y-73850000D03*
%TO.P,D13,2*%
%TO.N,mirror_third_num*%
X317800000Y-77150000D03*
D13*
X317800000Y-79310000D03*
%TD*%
D11*
%TO.P,D6,1*%
%TO.N,P113*%
X336550000Y-149690000D03*
D12*
X336550000Y-151850000D03*
%TO.P,D6,2*%
%TO.N,mirror_second_mod*%
X336550000Y-155150000D03*
D13*
X336550000Y-157310000D03*
%TD*%
D11*
%TO.P,D25,1*%
%TO.N,P115*%
X336550000Y-126440000D03*
D12*
X336550000Y-128600000D03*
%TO.P,D25,2*%
%TO.N,mirror_second_bottom*%
X336550000Y-131900000D03*
D13*
X336550000Y-134060000D03*
%TD*%
D11*
%TO.P,D8,1*%
%TO.N,P029*%
X336550000Y-96440000D03*
D12*
X336550000Y-98600000D03*
%TO.P,D8,2*%
%TO.N,mirror_second_top*%
X336550000Y-101900000D03*
D13*
X336550000Y-104060000D03*
%TD*%
D11*
%TO.P,D16,1*%
%TO.N,P029*%
X299050000Y-84440000D03*
D12*
X299050000Y-86600000D03*
%TO.P,D16,2*%
%TO.N,mirror_fourth_top*%
X299050000Y-89900000D03*
D13*
X299050000Y-92060000D03*
%TD*%
D11*
%TO.P,D18,1*%
%TO.N,P113*%
X280300000Y-143690000D03*
D12*
X280300000Y-145850000D03*
%TO.P,D18,2*%
%TO.N,mirror_fifth_mod*%
X280300000Y-149150000D03*
D13*
X280300000Y-151310000D03*
%TD*%
D11*
%TO.P,D4,1*%
%TO.N,P029*%
X355300000Y-96440000D03*
D12*
X355300000Y-98600000D03*
%TO.P,D4,2*%
%TO.N,mirror_first_top*%
X355300000Y-101900000D03*
D13*
X355300000Y-104060000D03*
%TD*%
D11*
%TO.P,D12,1*%
%TO.N,P029*%
X317800000Y-89440000D03*
D12*
X317800000Y-91600000D03*
%TO.P,D12,2*%
%TO.N,mirror_third_top*%
X317800000Y-94900000D03*
D13*
X317800000Y-97060000D03*
%TD*%
D14*
%TO.P,JST1,1*%
%TO.N,pos*%
X295250000Y-95500000D03*
D15*
%TO.P,JST1,2*%
%TO.N,GND*%
X295250000Y-97500000D03*
%TD*%
D11*
%TO.P,D19,1*%
%TO.N,P002*%
X280300000Y-108190000D03*
D12*
X280300000Y-110350000D03*
%TO.P,D19,2*%
%TO.N,mirror_fifth_home*%
X280300000Y-113650000D03*
D13*
X280300000Y-115810000D03*
%TD*%
D11*
%TO.P,D3,1*%
%TO.N,P002*%
X355300000Y-114190000D03*
D12*
X355300000Y-116350000D03*
%TO.P,D3,2*%
%TO.N,mirror_first_home*%
X355300000Y-119650000D03*
D13*
X355300000Y-121810000D03*
%TD*%
D11*
%TO.P,D23,1*%
%TO.N,P002*%
X261550000Y-111190000D03*
D12*
X261550000Y-113350000D03*
%TO.P,D23,2*%
%TO.N,mirror_sixth_home*%
X261550000Y-116650000D03*
D13*
X261550000Y-118810000D03*
%TD*%
D11*
%TO.P,D1,1*%
%TO.N,P113*%
X355300000Y-149690000D03*
D12*
X355300000Y-151850000D03*
%TO.P,D1,2*%
%TO.N,mirror_first_mod*%
X355300000Y-155150000D03*
D13*
X355300000Y-157310000D03*
%TD*%
D11*
%TO.P,D30,1*%
%TO.N,P031*%
X261550000Y-73190000D03*
D12*
X261550000Y-75350000D03*
%TO.P,D30,2*%
%TO.N,mirror_sixth_num*%
X261550000Y-78650000D03*
D13*
X261550000Y-80810000D03*
%TD*%
D11*
%TO.P,D15,1*%
%TO.N,P115*%
X299050000Y-119940000D03*
D12*
X299050000Y-122100000D03*
%TO.P,D15,2*%
%TO.N,mirror_fourth_bottom*%
X299050000Y-125400000D03*
D13*
X299050000Y-127560000D03*
%TD*%
D11*
%TO.P,D17,1*%
%TO.N,P031*%
X299050000Y-66690000D03*
D12*
X299050000Y-68850000D03*
%TO.P,D17,2*%
%TO.N,mirror_fourth_num*%
X299050000Y-72150000D03*
D13*
X299050000Y-74310000D03*
%TD*%
D16*
%TO.P,MCU1,1*%
%TO.N,P006*%
X248780000Y-85120000D03*
%TO.P,MCU1,2*%
%TO.N,P008*%
X251320000Y-85120000D03*
%TO.P,MCU1,3*%
%TO.N,GND*%
X253860000Y-85120000D03*
%TO.P,MCU1,4*%
X256400000Y-85120000D03*
%TO.P,MCU1,5*%
%TO.N,P017*%
X258940000Y-85120000D03*
%TO.P,MCU1,6*%
%TO.N,P020*%
X261480000Y-85120000D03*
%TO.P,MCU1,7*%
%TO.N,P022*%
X264020000Y-85120000D03*
%TO.P,MCU1,8*%
%TO.N,P024*%
X266560000Y-85120000D03*
%TO.P,MCU1,9*%
%TO.N,P100*%
X269100000Y-85120000D03*
%TO.P,MCU1,10*%
%TO.N,P011*%
X271640000Y-85120000D03*
%TO.P,MCU1,11*%
%TO.N,P104*%
X274180000Y-85120000D03*
%TO.P,MCU1,12*%
%TO.N,P106*%
X276720000Y-85120000D03*
%TO.P,MCU1,13*%
%TO.N,P009*%
X276720000Y-69880000D03*
%TO.P,MCU1,14*%
%TO.N,P010*%
X274180000Y-69880000D03*
%TO.P,MCU1,15*%
%TO.N,P111*%
X271640000Y-69880000D03*
%TO.P,MCU1,16*%
%TO.N,P113*%
X269100000Y-69880000D03*
%TO.P,MCU1,17*%
%TO.N,P115*%
X266560000Y-69880000D03*
%TO.P,MCU1,18*%
%TO.N,P002*%
X264020000Y-69880000D03*
%TO.P,MCU1,19*%
%TO.N,P029*%
X261480000Y-69880000D03*
%TO.P,MCU1,20*%
%TO.N,P031*%
X258940000Y-69880000D03*
%TO.P,MCU1,21*%
%TO.N,VCC*%
X256400000Y-69880000D03*
%TO.P,MCU1,22*%
%TO.N,RST*%
X253860000Y-69880000D03*
%TO.P,MCU1,23*%
%TO.N,GND*%
X251320000Y-69880000D03*
%TO.P,MCU1,24*%
%TO.N,RAW*%
X248780000Y-69880000D03*
%TD*%
D11*
%TO.P,D2,1*%
%TO.N,P115*%
X355300000Y-131940000D03*
D12*
X355300000Y-134100000D03*
%TO.P,D2,2*%
%TO.N,mirror_first_bottom*%
X355300000Y-137400000D03*
D13*
X355300000Y-139560000D03*
%TD*%
D11*
%TO.P,D11,1*%
%TO.N,P002*%
X317800000Y-107190000D03*
D12*
X317800000Y-109350000D03*
%TO.P,D11,2*%
%TO.N,mirror_third_home*%
X317800000Y-112650000D03*
D13*
X317800000Y-114810000D03*
%TD*%
D11*
%TO.P,D21,1*%
%TO.N,P113*%
X261550000Y-146690000D03*
D12*
X261550000Y-148850000D03*
%TO.P,D21,2*%
%TO.N,mirror_sixth_mod*%
X261550000Y-152150000D03*
D13*
X261550000Y-154310000D03*
%TD*%
D11*
%TO.P,D9,1*%
%TO.N,P113*%
X317800000Y-142690000D03*
D12*
X317800000Y-144850000D03*
%TO.P,D9,2*%
%TO.N,mirror_third_mod*%
X317800000Y-148150000D03*
D13*
X317800000Y-150310000D03*
%TD*%
D11*
%TO.P,D26,1*%
%TO.N,P031*%
X336550000Y-73190000D03*
D12*
X336550000Y-75350000D03*
%TO.P,D26,2*%
%TO.N,mirror_second_num*%
X336550000Y-78650000D03*
D13*
X336550000Y-80810000D03*
%TD*%
D11*
%TO.P,D28,1*%
%TO.N,P115*%
X280300000Y-120440000D03*
D12*
X280300000Y-122600000D03*
%TO.P,D28,2*%
%TO.N,mirror_fifth_bottom*%
X280300000Y-125900000D03*
D13*
X280300000Y-128060000D03*
%TD*%
D11*
%TO.P,D14,1*%
%TO.N,P113*%
X299050000Y-137690000D03*
D12*
X299050000Y-139850000D03*
%TO.P,D14,2*%
%TO.N,mirror_fourth_mod*%
X299050000Y-143150000D03*
D13*
X299050000Y-145310000D03*
%TD*%
D11*
%TO.P,D22,1*%
%TO.N,P115*%
X261550000Y-128940000D03*
D12*
X261550000Y-131100000D03*
%TO.P,D22,2*%
%TO.N,mirror_sixth_bottom*%
X261550000Y-134400000D03*
D13*
X261550000Y-136560000D03*
%TD*%
D11*
%TO.P,D10,1*%
%TO.N,P115*%
X317800000Y-124940000D03*
D12*
X317800000Y-127100000D03*
%TO.P,D10,2*%
%TO.N,mirror_third_bottom*%
X317800000Y-130400000D03*
D13*
X317800000Y-132560000D03*
%TD*%
D11*
%TO.P,D27,1*%
%TO.N,P002*%
X299050000Y-96690000D03*
D12*
X299050000Y-98850000D03*
%TO.P,D27,2*%
%TO.N,mirror_fourth_home*%
X299050000Y-102150000D03*
D13*
X299050000Y-104310000D03*
%TD*%
D11*
%TO.P,D24,1*%
%TO.N,P029*%
X261550000Y-93440000D03*
D12*
X261550000Y-95600000D03*
%TO.P,D24,2*%
%TO.N,mirror_sixth_top*%
X261550000Y-98900000D03*
D13*
X261550000Y-101060000D03*
%TD*%
D17*
%TO.N,P022*%
X267000000Y-80000000D03*
X270500000Y-76500000D03*
%TO.N,P024*%
X292500000Y-80500000D03*
%TO.N,pos*%
X249500000Y-106500000D03*
X279000000Y-102000000D03*
%TO.N,P100*%
X294500000Y-141500000D03*
X294525000Y-137975000D03*
X294500000Y-123500000D03*
X294500000Y-123500000D03*
X294525000Y-119975000D03*
X290000000Y-88500000D03*
X288500000Y-86000000D03*
%TO.N,P002*%
X287522501Y-83977499D03*
X281000000Y-77500000D03*
%TO.N,P113*%
X269500000Y-66000000D03*
%TO.N,P115*%
X267000000Y-66000000D03*
%TO.N,RST*%
X247594753Y-88325000D03*
%TO.N,RAW*%
X251000000Y-100000000D03*
%TD*%
D18*
%TO.N,P022*%
X270500000Y-76500000D02*
X267000000Y-80000000D01*
%TO.N,P029*%
X267507784Y-74225900D02*
X266492216Y-74225900D01*
X272266934Y-76358329D02*
X269408605Y-73500000D01*
X266492216Y-74225900D02*
X265774100Y-73507784D01*
X268225900Y-73500000D02*
X268225900Y-73507784D01*
X265774100Y-73500000D02*
X265100000Y-73500000D01*
X272500000Y-76500000D02*
X272358329Y-76358329D01*
X279075000Y-84075000D02*
X274375000Y-79375000D01*
X272701650Y-76500000D02*
X272500000Y-76500000D01*
X268225900Y-73507784D02*
X267507784Y-74225900D01*
X274375000Y-78173350D02*
X272701650Y-76500000D01*
X272358329Y-76358329D02*
X272266934Y-76358329D01*
X274375000Y-79375000D02*
X274375000Y-78173350D01*
X269408605Y-73500000D02*
X268225900Y-73500000D01*
X279075000Y-89215000D02*
X279075000Y-84075000D01*
X280300000Y-90440000D02*
X279075000Y-89215000D01*
X265774100Y-73507784D02*
X265774100Y-73500000D01*
X265100000Y-73500000D02*
X261480000Y-69880000D01*
%TO.N,GND*%
X256400000Y-85120000D02*
X253860000Y-85120000D01*
X295250000Y-97500000D02*
X293412500Y-99337500D01*
X265437500Y-99337500D02*
X262475000Y-96375000D01*
X293412500Y-99337500D02*
X265437500Y-99337500D01*
X256400000Y-92633684D02*
X256400000Y-85120000D01*
X262475000Y-96375000D02*
X260141316Y-96375000D01*
X260141316Y-96375000D02*
X256400000Y-92633684D01*
%TO.N,P024*%
X292500000Y-80500000D02*
X289850000Y-80500000D01*
X260982405Y-68678700D02*
X260278700Y-69382405D01*
X289850000Y-80500000D02*
X278028700Y-68678700D01*
X278028700Y-68678700D02*
X260982405Y-68678700D01*
X260982405Y-71081300D02*
X261977595Y-71081300D01*
X260278700Y-69382405D02*
X260278700Y-70377595D01*
X260278700Y-70377595D02*
X260982405Y-71081300D01*
X261977595Y-71081300D02*
X265625000Y-74728705D01*
X265625000Y-74728705D02*
X265625000Y-84185000D01*
X265625000Y-84185000D02*
X266560000Y-85120000D01*
%TO.N,pos*%
X257916658Y-106500000D02*
X249500000Y-106500000D01*
X262416658Y-102000000D02*
X257916658Y-106500000D01*
X279000000Y-102000000D02*
X262416658Y-102000000D01*
%TO.N,P031*%
X299050000Y-66690000D02*
X299050000Y-65550000D01*
X299050000Y-65550000D02*
X298410500Y-64910500D01*
X298410500Y-64910500D02*
X282579500Y-64910500D01*
X282579500Y-64910500D02*
X280300000Y-67190000D01*
%TO.N,P113*%
X351038000Y-72000000D02*
X356577500Y-77539500D01*
X319014000Y-70476000D02*
X319014000Y-70550000D01*
X337764000Y-72000000D02*
X351038000Y-72000000D01*
X337764000Y-71976000D02*
X337764000Y-72000000D01*
X335972396Y-71976000D02*
X337764000Y-71976000D01*
X334546396Y-70550000D02*
X335972396Y-71976000D01*
X319014000Y-70550000D02*
X334546396Y-70550000D01*
X317222396Y-70476000D02*
X319014000Y-70476000D01*
X312986396Y-66240000D02*
X317222396Y-70476000D01*
X269500000Y-66000000D02*
X271039500Y-64460500D01*
X301240000Y-66240000D02*
X312986396Y-66240000D01*
X299460500Y-64460500D02*
X301240000Y-66240000D01*
X271039500Y-64460500D02*
X299460500Y-64460500D01*
X356577500Y-77539500D02*
X356577500Y-148412500D01*
X356577500Y-148412500D02*
X355300000Y-149690000D01*
%TO.N,P031*%
X355300000Y-78690000D02*
X355300000Y-76898396D01*
X355300000Y-76898396D02*
X350901604Y-72500000D01*
X350901604Y-72500000D02*
X337240000Y-72500000D01*
X337240000Y-72500000D02*
X336550000Y-73190000D01*
X336550000Y-73190000D02*
X334360000Y-71000000D01*
X334360000Y-71000000D02*
X318490000Y-71000000D01*
X318490000Y-71000000D02*
X317800000Y-71690000D01*
%TO.N,P100*%
X294525000Y-141475000D02*
X294500000Y-141500000D01*
X294525000Y-137975000D02*
X294525000Y-141475000D01*
X294500000Y-120000000D02*
X294500000Y-123500000D01*
X294525000Y-119975000D02*
X294500000Y-120000000D01*
X290000000Y-87500000D02*
X290000000Y-88500000D01*
X288500000Y-86000000D02*
X290000000Y-87500000D01*
%TO.N,P002*%
X287522501Y-83977499D02*
X299050000Y-95504999D01*
X299050000Y-95504999D02*
X299050000Y-96690000D01*
X272453330Y-75908329D02*
X279408329Y-75908329D01*
X267626301Y-71081300D02*
X272453330Y-75908329D01*
X279408329Y-75908329D02*
X281000000Y-77500000D01*
X265221300Y-71081300D02*
X267626301Y-71081300D01*
X264020000Y-69880000D02*
X265221300Y-71081300D01*
%TO.N,P115*%
X266500000Y-66500000D02*
X267000000Y-66000000D01*
X250000000Y-66500000D02*
X266500000Y-66500000D01*
%TO.N,RST*%
X247594753Y-88325000D02*
X246875000Y-87605247D01*
X246875000Y-87605247D02*
X246875000Y-70086105D01*
X246875000Y-70086105D02*
X248461105Y-68500000D01*
X248461105Y-68500000D02*
X252480000Y-68500000D01*
X252480000Y-68500000D02*
X253860000Y-69880000D01*
%TO.N,GND*%
X251320000Y-69880000D02*
X251320000Y-82580000D01*
X251320000Y-82580000D02*
X253860000Y-85120000D01*
%TO.N,RAW*%
X251000000Y-100000000D02*
X251000000Y-86498895D01*
X250625000Y-71725000D02*
X248780000Y-69880000D01*
X251000000Y-86498895D02*
X250118700Y-85617595D01*
X250118700Y-85617595D02*
X250118700Y-82881300D01*
X250118700Y-82881300D02*
X250625000Y-82375000D01*
X250625000Y-82375000D02*
X250625000Y-71725000D01*
%TO.N,P031*%
X355300000Y-78690000D02*
X355300000Y-80850000D01*
%TO.N,mirror_first_num*%
X355300000Y-86310000D02*
X355300000Y-84150000D01*
%TO.N,P029*%
X355300000Y-96440000D02*
X355300000Y-98600000D01*
%TO.N,mirror_first_top*%
X355300000Y-104060000D02*
X355300000Y-101900000D01*
%TO.N,P002*%
X355300000Y-114190000D02*
X355300000Y-116350000D01*
%TO.N,mirror_first_home*%
X355300000Y-121810000D02*
X355300000Y-119650000D01*
%TO.N,P115*%
X355300000Y-131940000D02*
X355300000Y-134100000D01*
%TO.N,mirror_first_bottom*%
X355300000Y-139560000D02*
X355300000Y-137400000D01*
%TO.N,P113*%
X355300000Y-149690000D02*
X355300000Y-151850000D01*
%TO.N,mirror_first_mod*%
X355300000Y-157310000D02*
X355300000Y-155150000D01*
%TO.N,mirror_second_mod*%
X336550000Y-157310000D02*
X336550000Y-155150000D01*
%TO.N,P113*%
X336550000Y-149690000D02*
X336550000Y-151850000D01*
%TO.N,mirror_second_bottom*%
X336550000Y-134060000D02*
X336550000Y-131900000D01*
%TO.N,P115*%
X336550000Y-126440000D02*
X336550000Y-128600000D01*
%TO.N,mirror_second_home*%
X336550000Y-119650000D02*
X336550000Y-121810000D01*
%TO.N,P002*%
X336550000Y-114190000D02*
X336550000Y-116350000D01*
%TO.N,mirror_second_top*%
X336550000Y-104060000D02*
X336550000Y-101900000D01*
%TO.N,P029*%
X336550000Y-96440000D02*
X336550000Y-98600000D01*
%TO.N,mirror_second_num*%
X336550000Y-80810000D02*
X336550000Y-78650000D01*
%TO.N,P031*%
X336550000Y-73190000D02*
X336550000Y-75350000D01*
X317800000Y-71690000D02*
X317800000Y-73850000D01*
%TO.N,mirror_third_num*%
X317800000Y-79310000D02*
X317800000Y-77150000D01*
%TO.N,P029*%
X317800000Y-89440000D02*
X317800000Y-91600000D01*
%TO.N,mirror_third_top*%
X317800000Y-97060000D02*
X317800000Y-94900000D01*
%TO.N,P002*%
X317800000Y-107190000D02*
X317800000Y-109350000D01*
%TO.N,mirror_third_home*%
X317800000Y-114810000D02*
X317800000Y-112650000D01*
%TO.N,P115*%
X317800000Y-124940000D02*
X317800000Y-127100000D01*
%TO.N,mirror_third_bottom*%
X317800000Y-132560000D02*
X317800000Y-130400000D01*
%TO.N,P113*%
X317800000Y-142690000D02*
X317800000Y-144850000D01*
%TO.N,mirror_third_mod*%
X317800000Y-150310000D02*
X317800000Y-148150000D01*
%TO.N,mirror_fourth_mod*%
X299050000Y-145310000D02*
X299050000Y-143150000D01*
%TO.N,P113*%
X299050000Y-137690000D02*
X299050000Y-139850000D01*
%TO.N,mirror_fourth_bottom*%
X299050000Y-127560000D02*
X299050000Y-125400000D01*
%TO.N,P115*%
X299050000Y-119940000D02*
X299050000Y-122100000D01*
%TO.N,mirror_fourth_home*%
X299050000Y-104310000D02*
X299050000Y-102150000D01*
%TO.N,P002*%
X299050000Y-96690000D02*
X299050000Y-98850000D01*
%TO.N,mirror_fourth_top*%
X299050000Y-92060000D02*
X299050000Y-89900000D01*
%TO.N,P029*%
X299050000Y-84440000D02*
X299050000Y-86600000D01*
X280300000Y-90440000D02*
X280300000Y-92600000D01*
%TO.N,mirror_fifth_top*%
X280300000Y-98060000D02*
X280300000Y-95900000D01*
%TO.N,P002*%
X280300000Y-108190000D02*
X280300000Y-110350000D01*
%TO.N,mirror_fifth_home*%
X280300000Y-115810000D02*
X280300000Y-113650000D01*
%TO.N,P115*%
X280300000Y-120440000D02*
X280300000Y-122600000D01*
%TO.N,mirror_fifth_bottom*%
X280300000Y-128060000D02*
X280300000Y-125900000D01*
%TO.N,P113*%
X280300000Y-143690000D02*
X280300000Y-145850000D01*
%TO.N,mirror_fifth_mod*%
X280300000Y-151310000D02*
X280300000Y-149150000D01*
%TO.N,mirror_sixth_mod*%
X261550000Y-154310000D02*
X261550000Y-152150000D01*
%TO.N,P113*%
X261550000Y-146690000D02*
X261550000Y-148850000D01*
%TO.N,mirror_sixth_bottom*%
X261550000Y-136560000D02*
X261550000Y-134400000D01*
%TO.N,P115*%
X261550000Y-128940000D02*
X261550000Y-131100000D01*
%TO.N,mirror_sixth_home*%
X261550000Y-118810000D02*
X261550000Y-116650000D01*
%TO.N,P002*%
X261550000Y-113350000D02*
X261550000Y-111190000D01*
%TO.N,mirror_sixth_top*%
X261550000Y-101060000D02*
X261550000Y-98900000D01*
%TO.N,P029*%
X261550000Y-95600000D02*
X261550000Y-93440000D01*
%TO.N,mirror_fourth_num*%
X299050000Y-74310000D02*
X299050000Y-72150000D01*
%TO.N,P031*%
X299050000Y-68850000D02*
X299050000Y-66690000D01*
%TO.N,mirror_fifth_num*%
X280300000Y-74810000D02*
X280300000Y-72650000D01*
%TO.N,P031*%
X280300000Y-69350000D02*
X280300000Y-67190000D01*
%TO.N,mirror_sixth_num*%
X261550000Y-78650000D02*
X261550000Y-80810000D01*
%TO.N,P031*%
X261550000Y-75350000D02*
X261550000Y-73190000D01*
X261550000Y-73190000D02*
X261550000Y-72490000D01*
X261550000Y-72490000D02*
X258940000Y-69880000D01*
X280300000Y-67190000D02*
X261630000Y-67190000D01*
X261630000Y-67190000D02*
X258940000Y-69880000D01*
X317800000Y-71690000D02*
X312800000Y-66690000D01*
X312800000Y-66690000D02*
X299050000Y-66690000D01*
%TO.N,P029*%
X280300000Y-90440000D02*
X278520500Y-88660500D01*
X278520500Y-88660500D02*
X266329500Y-88660500D01*
X266329500Y-88660500D02*
X261550000Y-93440000D01*
X299050000Y-84440000D02*
X297270500Y-82660500D01*
X286105816Y-82660500D02*
X280300000Y-88466316D01*
X297270500Y-82660500D02*
X286105816Y-82660500D01*
X280300000Y-88466316D02*
X280300000Y-90440000D01*
X317800000Y-89440000D02*
X312800000Y-84440000D01*
X312800000Y-84440000D02*
X299050000Y-84440000D01*
X336550000Y-96440000D02*
X329550000Y-89440000D01*
X329550000Y-89440000D02*
X317800000Y-89440000D01*
X355300000Y-96440000D02*
X353520500Y-94660500D01*
X353520500Y-94660500D02*
X338329500Y-94660500D01*
X338329500Y-94660500D02*
X336550000Y-96440000D01*
%TO.N,P002*%
X280300000Y-108190000D02*
X278520500Y-106410500D01*
X278520500Y-106410500D02*
X266329500Y-106410500D01*
X266329500Y-106410500D02*
X261550000Y-111190000D01*
X299050000Y-96690000D02*
X295740000Y-100000000D01*
X295740000Y-100000000D02*
X286516316Y-100000000D01*
X286516316Y-100000000D02*
X280300000Y-106216316D01*
X280300000Y-106216316D02*
X280300000Y-108190000D01*
X317800000Y-107190000D02*
X307300000Y-96690000D01*
X307300000Y-96690000D02*
X299050000Y-96690000D01*
X336550000Y-114190000D02*
X329550000Y-107190000D01*
X329550000Y-107190000D02*
X317800000Y-107190000D01*
X355300000Y-114190000D02*
X353520500Y-112410500D01*
X353520500Y-112410500D02*
X338329500Y-112410500D01*
X338329500Y-112410500D02*
X336550000Y-114190000D01*
%TO.N,P115*%
X280300000Y-120440000D02*
X270050000Y-120440000D01*
X270050000Y-120440000D02*
X261550000Y-128940000D01*
X299050000Y-119940000D02*
X297270500Y-118160500D01*
X297270500Y-118160500D02*
X282579500Y-118160500D01*
X282579500Y-118160500D02*
X280300000Y-120440000D01*
X317800000Y-124940000D02*
X312800000Y-119940000D01*
X312800000Y-119940000D02*
X299050000Y-119940000D01*
X336550000Y-126440000D02*
X319300000Y-126440000D01*
X319300000Y-126440000D02*
X317800000Y-124940000D01*
X355300000Y-131940000D02*
X349800000Y-126440000D01*
X349800000Y-126440000D02*
X336550000Y-126440000D01*
%TO.N,P113*%
X280300000Y-143690000D02*
X278520500Y-141910500D01*
X278520500Y-141910500D02*
X266329500Y-141910500D01*
X266329500Y-141910500D02*
X261550000Y-146690000D01*
X299050000Y-137690000D02*
X297270500Y-135910500D01*
X297270500Y-135910500D02*
X286105816Y-135910500D01*
X286105816Y-135910500D02*
X280300000Y-141716316D01*
X280300000Y-141716316D02*
X280300000Y-143690000D01*
X317800000Y-142690000D02*
X312800000Y-137690000D01*
X312800000Y-137690000D02*
X299050000Y-137690000D01*
X336550000Y-149690000D02*
X329550000Y-142690000D01*
X329550000Y-142690000D02*
X317800000Y-142690000D01*
X355300000Y-149690000D02*
X353520500Y-147910500D01*
X338329500Y-147910500D02*
X336550000Y-149690000D01*
X353520500Y-147910500D02*
X338329500Y-147910500D01*
%TO.N,P115*%
X248324709Y-68000000D02*
X248500000Y-68000000D01*
X246425000Y-69899709D02*
X248324709Y-68000000D01*
X246425000Y-88180552D02*
X246425000Y-69899709D01*
X246875000Y-88630552D02*
X246425000Y-88180552D01*
X246875000Y-116026650D02*
X246875000Y-88630552D01*
X255977050Y-125128700D02*
X246875000Y-116026650D01*
X257738700Y-125128700D02*
X255977050Y-125128700D01*
X261550000Y-128940000D02*
X257738700Y-125128700D01*
X248500000Y-68000000D02*
X250000000Y-66500000D01*
%TD*%
M02*
